<?xml version="1.0" encoding="utf-8"?>
<!-- Generator: Adobe Illustrator 22.1.0, SVG Export Plug-In . SVG Version: 6.00 Build 0)  -->
<svg version="1.1" id="Layer_1" xmlns="http://www.w3.org/2000/svg" xmlns:xlink="http://www.w3.org/1999/xlink" x="0px" y="0px"
	 viewBox="0 0 287.7 65.4" style="enable-background:new 0 0 287.7 65.4;" xml:space="preserve">
<style type="text/css">
	.st0{fill:#FFFFFF;}
</style>
<g id="Group_27" transform="translate(-0.111 -0.111)">
	<path id="Path_37" class="st0" d="M76.1,10.9c-0.1-4.1,3.2-7.5,7.4-7.6c4.1-0.1,7.5,3.2,7.6,7.4c0.1,4.1-3.2,7.5-7.4,7.6h-0.1
		C79.4,18.3,76.1,15,76.1,10.9 M89.5,10.8c-0.1-3.3-2.8-5.9-6.1-5.9c-3.3,0-6,2.6-6.1,5.9l0,0c0,3.3,2.7,6,6.1,6.1l0,0
		c3.3,0,6-2.6,6.1-5.9C89.5,10.8,89.5,10.8,89.5,10.8"/>
	<path id="Path_38" class="st0" d="M94.7,16.7h1.9V18h-5.1v-1.3h1.8V5.1h-1.8V3.8h3.9l5.1,12.1l5.7-12.1h3.9v1.3h-1.8v11.6h1.8V18
		H105v-1.3h1.9v-11L101.1,18h-1.2L94.7,5.7V16.7z"/>
	<path id="Path_39" class="st0" d="M122.3,18v-1.3h1.9l-1.4-3.2h-6.5l-1.4,3.2h1.8V18h-5.1v-1.3h1.8l5.1-11.5h-1.9V3.8h3.7l5.6,12.8
		h1.8v1.3h-5.2V18H122.3z M119.6,5.4l-2.8,6.9h5.7L119.6,5.4z"/>
	<path id="Path_40" class="st0" d="M142.2,18h-1.4l-8.5-11.9v10.6h1.9V18H129v-1.3h1.8V5.1H129V3.8h3.2l8.5,12V5.1h-1.8V3.8h5v1.3
		h-1.8L142.2,18z"/>
	<path id="Path_41" class="st0" d="M163.3,7.2c-2-2.6-5.8-3.2-8.4-1.1c-1.5,1.1-2.4,2.9-2.4,4.7c0,3.3,2.6,6,5.9,6.1
		c2,0,3.9-1,5-2.6h1.5c-1.2,2.5-3.8,4-6.5,4c-1.9,0-3.8-0.8-5.2-2.1c-1.4-1.4-2.2-3.3-2.1-5.3c0-2,0.8-3.9,2.3-5.3
		c1.4-1.4,3.3-2.1,5.2-2c1.8,0,3.6,0.7,4.9,2V3.8h1.3v3.4H163.3L163.3,7.2z"/>
	<path id="Path_42" class="st0" d="M165.7,10.9c-0.1-4.1,3.2-7.5,7.4-7.6c4.1-0.1,7.5,3.2,7.6,7.4s-3.2,7.5-7.4,7.6h-0.1
		C169,18.3,165.7,15,165.7,10.9 M179.1,10.8c-0.1-3.3-2.8-5.9-6.1-5.9s-6,2.6-6.1,5.9l0,0c0,3.3,2.7,6,6.1,6.1l0,0
		c3.3,0,6-2.6,6.1-5.9C179.1,10.8,179.1,10.8,179.1,10.8"/>
	<path id="Path_43" class="st0" d="M193.9,18h-1.4L184,6.1v10.6h1.8V18h-5v-1.3h1.8V5.1h-1.8V3.8h3.2l8.5,12V5.1h-1.8V3.8h5v1.3
		h-1.8V18z"/>
	<path id="Path_44" class="st0" d="M205.4,18h-1.5l-5-12.9h-1.8V3.8h5v1.3h-1.8l4.4,10.9l4.5-10.9h-1.9V3.8h5v1.3h-1.7L205.4,18z"/>
	<path id="Path_45" class="st0" d="M223.7,14.3V18h-10v-1.3h1.8V5.1h-1.8V3.8h10v3.7h-1.4V5.1H217v5.2h5.5v1.1H217v5.3h5.3v-2.4
		C222.3,14.3,223.7,14.3,223.7,14.3z"/>
	<path id="Path_46" class="st0" d="M238.2,18h-1.4l-8.4-11.9v10.6h1.8V18H225v-1.3h1.9V5.1H225V3.8h3.3l8.4,12V5.1H235V3.8h5.1v1.3
		h-1.9L238.2,18z"/>
	<path id="Path_47" class="st0" d="M246.8,16.7h1.8V18h-5.1v-1.3h1.9V5.1h-3.1v2.5H241V3.8h10.1v3.8h-1.2V5.1h-3.1V16.7z"/>
	<path id="Path_48" class="st0" d="M255.5,16.7h1.8V18h-5v-1.3h1.8V5.1h-1.8V3.8h5v1.3h-1.8L255.5,16.7L255.5,16.7z"/>
	<path id="Path_49" class="st0" d="M88.2,41L85,38c-0.9,1.9-2.1,3.2-4.4,3.2s-4.2-1.8-4.3-4.1c0-2.1,1.7-3.3,3.3-4.3l-0.2-0.2
		c-1-0.7-1.6-1.8-1.7-3c0-1.8,1.5-3.2,3.2-3.2H81c1.8,0,3.3,1.4,3.3,3.2c0,1.8-1.3,2.7-2.7,3.4l3.2,3l1.9-4h2.6v1.2h-1.8L85.7,37
		l3.4,3.3L88.2,41z M80.4,33.7c-1.4,0.6-2.8,1.5-2.8,3.3c0,1.6,1.3,2.9,3,3c1.9,0,2.6-1.3,3.3-2.8L80.4,33.7z M80.8,32.1
		c1.1-0.5,2.4-1.2,2.4-2.5c0.1-1.1-0.8-2.1-1.9-2.1h-0.1c-1.1,0-2,0.9-2,2l0,0c0.1,0.9,0.6,1.8,1.4,2.3L80.8,32.1z"/>
	<path id="Path_50" class="st0" d="M104.8,37.2v3.7h-10v-1.3h1.8V28h-1.8v-1.3h10v3.7h-1.4V28H98v5.1h5.5v1.2H98v5.3h5.3v-2.4
		C103.3,37.2,104.8,37.2,104.8,37.2z"/>
	<path id="Path_51" class="st0" d="M117.8,39.6h1.7v1.3h-5.1v-1.3h1.8l-3.6-5l-3.6,5h1.8v1.3h-5.2v-1.3h1.8l4.4-6.1l-4-5.6H106v-1.3
		h5.1V28h-1.7l3.2,4.5l3.3-4.5H114v-1.3h5.1V28h-1.7l-4,5.6L117.8,39.6z"/>
	<path id="Path_52" class="st0" d="M130.8,28h-1.9v-1.3h5.1V28h-1.8v11.6h1.8v1.3h-5.1v-1.3h1.9v-5.3h-7.1v5.3h1.9v1.3h-5.1v-1.3
		h1.8V28h-1.8v-1.3h5.1V28h-1.9v5.1h7.1V28z"/>
	<path id="Path_53" class="st0" d="M138.5,39.6h1.8v1.3h-5.1v-1.3h1.8V28h-1.8v-1.3h5.1V28h-1.8V39.6z"/>
	<path id="Path_54" class="st0" d="M147.3,26.7c1-0.1,1.9,0.2,2.7,0.7c0.9,0.7,1.5,1.7,1.4,2.8c0,1.3-0.8,2.5-2,3.1
		c1.6,0.5,2.7,2.1,2.6,3.8c0,1.1-0.4,2.1-1.2,2.8c-0.9,0.7-2.1,1.1-3.2,0.9h-6.2v-1.3h1.8V28h-1.8v-1.3H147.3z M146.9,32.9
		c0.8,0.1,1.6-0.1,2.3-0.6c0.6-0.5,0.9-1.2,0.8-1.9c0-0.8-0.3-1.5-0.9-1.9c-0.7-0.4-1.4-0.5-2.1-0.4h-2.3V33h2.3L146.9,32.9z
		 M147.1,39.6c0.9,0.1,1.8-0.1,2.6-0.5c0.7-0.6,1-1.4,0.9-2.3c0.1-0.9-0.4-1.8-1.2-2.3s-1.7-0.7-2.6-0.6h-2.3v5.6L147.1,39.6
		L147.1,39.6z"/>
	<path id="Path_55" class="st0" d="M155.8,39.6h1.8v1.3h-5.1v-1.3h1.9V28h-1.9v-1.3h5.1V28h-1.8V39.6z"/>
	<path id="Path_56" class="st0" d="M164.4,39.6h1.8v1.3h-5v-1.3h1.8V28h-3.1v2.5h-1.2v-3.8h10v3.8h-1.2V28h-3.1V39.6z"/>
	<path id="Path_57" class="st0" d="M173.1,39.6h1.8v1.3h-5v-1.3h1.8V28h-1.8v-1.3h5V28h-1.8V39.6z"/>
	<path id="Path_58" class="st0" d="M175.2,33.7c-0.1-4.1,3.2-7.5,7.4-7.6c4.1-0.1,7.5,3.2,7.6,7.4c0.1,4.1-3.2,7.5-7.4,7.6h-0.1
		c-4,0.1-7.4-3.1-7.5-7.1C175.2,33.9,175.1,33.8,175.2,33.7 M188.7,33.7c-0.1-3.3-2.8-6-6.2-5.9c-3.2,0.1-5.8,2.7-5.9,5.9
		c0,3.3,2.7,6,6.1,6.1l0,0C186,39.7,188.7,37,188.7,33.7"/>
	<path id="Path_59" class="st0" d="M203.4,40.9H202L193.5,29v10.6h1.9v1.3h-5.1v-1.3h1.8V28h-1.8v-1.3h3.3l8.4,12V28h-1.8v-1.3h5.1
		V28h-1.9V40.9z"/>
	<path id="Path_60" class="st0" d="M222,30.1c-2-2.6-5.8-3.2-8.4-1.1c-1.5,1.1-2.4,2.9-2.4,4.7c0,3.3,2.6,6,5.9,6.1c2,0,3.9-1,5-2.6
		h1.5c-1.2,2.5-3.8,4-6.5,4c-1.9,0-3.8-0.8-5.2-2.1c-1.4-1.4-2.2-3.3-2.1-5.3c0-2,0.8-3.9,2.3-5.3c1.4-1.4,3.3-2.1,5.2-2
		c1.8,0,3.6,0.7,4.9,2v-1.7h1.3v3.4H222V30.1z"/>
	<path id="Path_61" class="st0" d="M234.6,37.2v3.7h-10.1v-1.3h1.8V28h-1.8v-1.3h10.1v3.7h-1.5V28h-5.2v5.1h5.5v1.2h-5.5v5.3h5.2
		v-2.4C233.1,37.2,234.6,37.2,234.6,37.2z"/>
	<path id="Path_62" class="st0" d="M249,40.9h-1.4L239,29.1v10.6h1.9V41h-5.1v-1.3h1.8V28h-1.8v-1.3h3.2l8.5,12V28h-1.8v-1.3h5.1V28
		H249V40.9z"/>
	<path id="Path_63" class="st0" d="M257.8,39.6h1.9v1.3h-5.1v-1.3h1.8V28h-3.1v2.5h-1.2v-3.8h10.1v3.8h-1.3V28h-3.1L257.8,39.6
		L257.8,39.6z"/>
	<path id="Path_64" class="st0" d="M275.3,40.9h-2.7l-4.4-6.2h0.6c1.1,0.1,2.1-0.1,3.1-0.6c1-0.6,1.6-1.7,1.5-2.8
		c0-1-0.4-1.9-1.1-2.6c-0.8-0.7-1.8-1-2.8-0.8h-2.7v11.6h1.7v1.3h-5v-1.3h1.8V27.9h-1.8v-1.3h6.2c1.3-0.1,2.6,0.3,3.7,1.1
		c1.1,0.9,1.7,2.2,1.7,3.6c0,2.4-1.9,4.3-4.3,4.4l3,3.9h1.9V41h-0.4V40.9z"/>
	<path id="Path_65" class="st0" d="M286.1,37.2v3.7H276v-1.3h1.8V28H276v-1.3h10.1v3.7h-1.5V28h-5.2v5.1h5.5v1.2h-5.5v5.3h5.2v-2.4
		C284.6,37.2,286.1,37.2,286.1,37.2z"/>
	<path id="Path_66" class="st0" d="M179.9,51.8L179.9,51.8c0.4,0,0.8-0.4,0.8-0.8s-0.4-0.8-0.8-0.8c-0.4,0-0.8,0.4-0.8,0.8
		c0,0.2,0.1,0.4,0.2,0.6C179.5,51.8,179.7,51.8,179.9,51.8 M147.7,51.8L147.7,51.8c0.4,0,0.8-0.4,0.8-0.8s-0.4-0.8-0.8-0.8
		c-0.4,0-0.8,0.4-0.8,0.8c0,0.2,0.1,0.4,0.2,0.6C147.3,51.8,147.5,51.8,147.7,51.8 M149.9,51.8L149.9,51.8c0.4,0,0.8-0.4,0.8-0.8
		s-0.4-0.8-0.8-0.8c-0.4,0-0.8,0.4-0.8,0.8c0,0.2,0.1,0.4,0.2,0.6C149.4,51.8,149.7,51.8,149.9,51.8 M87.8,51.8L87.8,51.8
		c0.4,0,0.8-0.4,0.8-0.8s-0.4-0.8-0.8-0.8S87,50.6,87,51c0,0.2,0.1,0.4,0.2,0.6C87.4,51.8,87.6,51.8,87.8,51.8 M285.9,54.6
		L285.9,54.6c-0.1-0.3-0.4-0.6-0.7-0.7c-0.2-0.2-0.5-0.3-0.8-0.4c-0.3-0.1-0.6-0.1-0.9-0.1s-0.6,0-0.9,0.1s-0.6,0.2-0.8,0.4
		l-0.7,0.7c-0.2,0.4-0.3,0.8-0.2,1.2v4h-3.8v-6.3h-1.4v8.4c0,0.2,0,0.4-0.1,0.6c0,0.1-0.1,0.2-0.2,0.4l-0.4,0.4
		c-0.2,0.1-0.4,0.3-0.6,0.4l-0.4,0.2l0.7,0.9l0.2,0.2l0.2-0.1c0.2-0.1,0.6-0.4,0.8-0.5c0.2-0.2,0.4-0.4,0.6-0.7
		c0.1-0.2,0.2-0.6,0.4-0.8c0.1-0.3,0.1-0.7,0.1-1.1v-0.5h3.9c0,0.2,0.1,0.4,0.2,0.6c0.2,0.2,0.4,0.5,0.7,0.6
		c0.2,0.1,0.6,0.2,0.8,0.4c0.2,0,0.6,0.1,0.8,0.1c0.3,0,0.6,0,0.9-0.1c0.4-0.1,0.6-0.2,0.9-0.4c0.3-0.3,0.5-0.5,0.7-0.8
		c0.2-0.4,0.3-0.8,0.2-1.2v-4.7C286.1,55.4,286,55,285.9,54.6 M284.7,60.1c0,0.2,0,0.5-0.1,0.7c-0.1,0.1-0.1,0.2-0.2,0.4
		c-0.1,0.1-0.2,0.1-0.4,0.1h-1.1c-0.1,0-0.2-0.1-0.4-0.1c-0.1-0.1-0.2-0.2-0.2-0.4c-0.1-0.2-0.1-0.4-0.1-0.6v-4.5
		c0-0.2,0-0.4,0.1-0.6c0.1-0.1,0.1-0.2,0.2-0.4c0.1-0.1,0.2-0.1,0.4-0.1c0.1,0,0.4-0.1,0.5-0.1c0.2,0,0.4,0,0.5,0.1
		c0.1,0,0.2,0.1,0.4,0.1c0.1,0.1,0.2,0.1,0.2,0.4c0.1,0.2,0.1,0.4,0.1,0.6v4.4C284.6,60.1,284.7,60.1,284.7,60.1z M181.3,58.7
		c0,0.3-0.1,0.5-0.2,0.7c-0.2,0.2-0.5,0.3-0.8,0.2h-3.7v-3.9c0-0.4-0.1-0.8-0.2-1.2c-0.1-0.4-0.4-0.6-0.7-0.8
		c-0.2-0.2-0.5-0.3-0.8-0.4c-0.3-0.1-0.6-0.1-0.9-0.1c-0.3,0-0.6,0-0.9,0.1c-0.3,0.1-0.6,0.2-0.8,0.4c-0.3,0.3-0.5,0.5-0.7,0.8
		c-0.2,0.4-0.3,0.8-0.2,1.2v4h-10.3v-6.3h-1.4v8.4c0,0.2,0,0.4-0.1,0.6c0,0.1-0.1,0.2-0.2,0.4l-0.4,0.4c-0.2,0.1-0.4,0.3-0.6,0.4
		l-0.4,0.2l0.7,0.9l0.2,0.2l0.2-0.1c0.3-0.1,0.6-0.3,0.8-0.5s0.4-0.4,0.6-0.7c0.1-0.2,0.2-0.6,0.4-0.8c0.1-0.3,0.1-0.7,0.1-1.1v-0.5
		h10.4c0.1,0.2,0.1,0.5,0.2,0.6c0.2,0.2,0.4,0.4,0.7,0.6c0.2,0.1,0.6,0.2,0.8,0.4c0.2,0,0.6,0.1,0.8,0.1c0.3,0,0.6,0,0.8-0.1
		s0.6-0.1,0.8-0.4c0.3-0.2,0.5-0.4,0.7-0.6c0.1-0.2,0.2-0.4,0.4-0.6h3.8c0.7,0,1.4-0.2,1.9-0.7c0.4-0.5,0.7-1.1,0.6-1.8v-5.5h-1.4
		v5.3L181.3,58.7z M175.1,60.1c0,0.2,0,0.5-0.1,0.7c-0.1,0.1-0.1,0.2-0.2,0.4c-0.1,0.1-0.2,0.1-0.4,0.1h-1.1c-0.1,0-0.2-0.1-0.4-0.1
		c-0.1-0.1-0.2-0.2-0.2-0.4c-0.1-0.2-0.1-0.4-0.1-0.6v-4.5c0-0.2,0-0.4,0.1-0.6c0.1-0.1,0.1-0.2,0.2-0.4c0.1-0.1,0.2-0.1,0.4-0.1
		s0.4,0,0.6-0.1c0.2,0,0.3,0,0.5,0.1c0.1,0,0.2,0.1,0.4,0.1c0.1,0.1,0.2,0.2,0.2,0.4c0.1,0.2,0.1,0.4,0.1,0.6V60.1z M220.7,61.3
		c0,0.3-0.1,0.7-0.2,0.9c-0.1,0.3-0.4,0.5-0.7,0.6c-0.3,0.2-0.6,0.3-0.9,0.4c-0.8,0.2-1.6,0.2-2.4,0c-0.3-0.1-0.6-0.2-0.9-0.4
		c-0.3-0.2-0.5-0.4-0.7-0.6c-0.1-0.3-0.2-0.6-0.2-0.9v-5.2l-1.4,1.1v4.2c0,0.6,0.1,1.3,0.5,1.8c0.3,0.4,0.6,0.8,1.1,1.1
		c0.5,0.2,0.9,0.4,1.4,0.6c0.5,0.1,1,0.1,1.5,0.1c0.3,0,0.6,0,0.9-0.1c0.4,0,0.7-0.1,1.1-0.2c0.3-0.1,0.7-0.2,0.9-0.5
		c0.3-0.2,0.6-0.4,0.8-0.7c0.3-0.3,0.5-0.6,0.6-0.9c0.1-0.4,0.2-0.8,0.2-1.2v-7.8h-1.5L220.7,61.3z M188.1,50.7h-1.2
		c-0.1,0-0.2,0-0.2-0.1v-0.1c0-0.1,0-0.1,0.1-0.2c0.1,0,0.2-0.1,0.4-0.1h0.7V49H187c-0.2,0-0.4,0-0.6,0.1c-0.1,0.1-0.4,0.2-0.5,0.4
		c-0.1,0.1-0.2,0.3-0.2,0.5c0,0.1-0.1,0.4-0.1,0.5v0.2h-0.5v1.2h3.2v-1.1h-0.2V50.7z M258.3,51.8L258.3,51.8c0.4,0,0.8-0.4,0.8-0.8
		s-0.4-0.8-0.8-0.8s-0.8,0.4-0.8,0.8c0,0.2,0.1,0.4,0.2,0.6C257.9,51.8,258.1,51.8,258.3,51.8 M207.7,58.8v0.4c0,0.1,0,0.1-0.1,0.2
		c-0.1,0.1-0.1,0.1-0.2,0.1c-0.1,0-0.2,0.1-0.4,0.1h-1v-9.1h-1.4v9.1h-5.9v-3.9c0-0.4-0.1-0.8-0.2-1.2c-0.1-0.4-0.4-0.6-0.7-0.8
		c-0.2-0.2-0.5-0.3-0.8-0.4c-0.3-0.1-0.6-0.1-0.9-0.1c-0.3,0-0.6,0-0.9,0.1c-0.3,0.1-0.6,0.2-0.8,0.4l-0.7,0.7
		c-0.2,0.4-0.3,0.8-0.2,1.2v4h-3.8v-6.3h-3c-0.3,0-0.6,0-0.9,0.1c-0.3,0.1-0.6,0.3-0.8,0.5s-0.4,0.5-0.6,0.7
		c-0.1,0.3-0.2,0.7-0.2,1.1v3c0,0.3,0,0.6,0.1,0.9c0.2,0.6,0.7,1.1,1.3,1.3c0.3,0.1,0.7,0.2,1.1,0.2h1.5v0.5c0,0.3-0.1,0.7-0.2,0.9
		c-0.1,0.2-0.3,0.5-0.5,0.6s-0.5,0.2-0.7,0.2c-0.3,0.1-0.5,0.1-0.8,0.1h-1l-0.9-0.1l1.1,1.5h0.5c0.4,0,0.7,0,1.1-0.1
		c0.4-0.1,0.8-0.3,1.2-0.5c0.4-0.3,0.7-0.6,0.9-1.1s0.4-1.1,0.4-1.7V61h3.9c0,0.2,0.1,0.4,0.2,0.6c0.2,0.2,0.4,0.5,0.7,0.6
		s0.5,0.3,0.8,0.4c0.2,0,0.6,0.1,0.8,0.1c0.3,0,0.6,0,0.8-0.1s0.6-0.1,0.8-0.4c0.3-0.2,0.5-0.4,0.7-0.6c0.1-0.2,0.2-0.4,0.4-0.6h8.5
		c0.6,0,1.1-0.2,1.5-0.6c0.4-0.5,0.6-1.1,0.6-1.7v-8.4h-1.4L207.7,58.8L207.7,58.8z M188,59.7h-1.7c-0.2,0-0.4-0.1-0.6-0.2
		c-0.2-0.2-0.3-0.5-0.2-0.7v-3.1c0-0.3,0.1-0.5,0.2-0.7c0.1-0.1,0.2-0.2,0.7-0.2h1.7L188,59.7L188,59.7z M197.2,60.1
		c0,0.2,0,0.5-0.1,0.7c-0.1,0.1-0.1,0.2-0.2,0.4c-0.1,0.1-0.2,0.1-0.4,0.1h-1.1c-0.1,0-0.2-0.1-0.4-0.1c-0.1-0.1-0.2-0.2-0.2-0.4
		c-0.1-0.2-0.1-0.4-0.1-0.6v-4.5c0-0.2,0-0.4,0.1-0.6c0.1-0.1,0.1-0.2,0.2-0.4s0.2-0.1,0.4-0.2c0.2,0,0.4,0,0.6-0.1
		c0.2,0,0.4,0,0.5,0.1c0.1,0,0.2,0.1,0.4,0.1c0.1,0.1,0.2,0.1,0.2,0.4c0.1,0.2,0.1,0.4,0.1,0.6V60.1z M245.9,51.7l0.4-0.1
		c0.4-0.1,0.7-0.4,1.1-0.5c0.3-0.2,0.5-0.3,0.8-0.5l0.1,0.1l0.2,0.2l0.6-0.6l0.4-0.2l-0.4-0.4c0.1-0.1,0.2-0.1,0.2-0.2
		c0.1-0.1,0.2-0.2,0.2-0.4c0.2-0.4,0.2-0.8,0-1.2c-0.1-0.1-0.1-0.4-0.2-0.5c-0.1-0.1-0.3-0.3-0.5-0.4c-0.4-0.2-0.8-0.2-1.2,0
		c-0.1,0.1-0.4,0.1-0.5,0.2c-0.1,0.1-0.3,0.3-0.4,0.5c-0.1,0.2-0.1,0.4-0.1,0.6c0,0.3,0.1,0.6,0.2,0.8c0,0.1,0.1,0.1,0.1,0.2
		c-0.2,0.1-0.4,0.3-0.6,0.4c-0.3,0.1-0.6,0.3-0.9,0.5l-0.4,0.1l0.4,0.7L245.9,51.7z M248.1,48.5c0.1,0,0.1,0,0.1-0.1l0,0
		c0.1,0,0.1,0,0.2,0.1c0,0.1,0,0.1,0.1,0.1l0,0v0.1c0,0.1,0,0.1-0.1,0.1l0,0l-0.1,0.1l-0.1-0.1C248.1,48.7,248.1,48.7,248.1,48.5
		L248.1,48.5 M217.5,51.8L217.5,51.8c0.4,0,0.8-0.4,0.8-0.8s-0.4-0.8-0.8-0.8c-0.4,0-0.8,0.4-0.8,0.8c0,0.2,0.1,0.4,0.2,0.6
		C217.1,51.7,217.3,51.8,217.5,51.8 M91,53.9c-0.2-0.2-0.4-0.4-0.7-0.5c-0.5-0.2-1.1-0.2-1.7,0l-3.3,1.2l0,0v-1.2h-1.4v8.1
		c0,0.3-0.1,0.7-0.2,0.9c-0.1,0.3-0.3,0.5-0.6,0.6c-0.3,0.1-0.6,0.3-0.9,0.4c-0.4,0.1-0.8,0.1-1.2,0.1c-0.4,0-0.8,0-1.2-0.1
		c-0.3-0.1-0.6-0.2-0.9-0.4s-0.5-0.4-0.7-0.6c-0.1-0.3-0.2-0.6-0.2-0.9v-5.2l-1.4,0.9v4.2c0,0.6,0.1,1.3,0.5,1.8
		c0.3,0.4,0.6,0.8,1.1,1.1c0.5,0.2,0.9,0.4,1.4,0.6c0.5,0.1,1,0.1,1.5,0.1c0.3,0,0.6,0,0.9-0.1c0.4,0,0.7-0.1,1.1-0.2
		c0.3-0.1,0.7-0.2,0.9-0.5c0.4-0.1,0.6-0.4,0.8-0.7c0.3-0.3,0.5-0.6,0.6-0.9c0.1-0.4,0.2-0.8,0.2-1.2V61h4c0.6,0,1.3-0.2,1.8-0.6
		c0.5-0.5,0.8-1.2,0.7-1.9v-3.2c0-0.3,0-0.7-0.2-0.9C91.4,54.3,91.2,54.1,91,53.9 M90.3,58.7v0.5c0,0.1-0.1,0.2-0.1,0.2L90,59.6
		c-0.1,0-0.2,0.1-0.5,0.1h-4v-3.1c0-0.2,0-0.3,0.1-0.5c0.2-0.2,0.4-0.3,0.6-0.4l2.8-0.9c0.1,0,0.2-0.1,0.4-0.1h0.4
		c0.1,0,0.3,0,0.4,0.1c0.1,0,0.1,0.1,0.2,0.1c0,0.1,0.1,0.1,0.1,0.2v3.4L90.3,58.7z M248.3,59.4l-0.2,0.2L248.3,59.4
		c-0.2-0.2-0.3-0.5-0.2-0.7v-3c-0.1-0.5,0.3-0.9,0.7-0.9c0.1,0,0.2,0,0.2,0h3.1v-1.4h-3c-0.3,0-0.6,0-0.9,0.1
		c-0.3,0.1-0.6,0.2-0.8,0.5c-0.2,0.2-0.4,0.4-0.6,0.7c-0.1,0.3-0.2,0.7-0.2,1.1v3c0,0.3,0,0.6,0.1,0.8v0.2h-6.1v-4
		c0-0.4-0.1-0.8-0.2-1.2c-0.1-0.4-0.4-0.6-0.7-0.8s-0.6-0.4-0.9-0.4c-0.3-0.1-0.6-0.1-0.9-0.1c-0.3,0-0.6,0-0.9,0.1
		c-0.3,0.1-0.6,0.2-0.8,0.4c-0.3,0.3-0.5,0.5-0.7,0.8c-0.1,0.4-0.2,0.8-0.2,1.2v4h-9.9c-0.1,0-0.3,0-0.4-0.1
		c-0.1-0.1-0.1-0.2-0.1-0.5v-8.5h-1.4v8.4c0,0.3,0,0.6,0.1,0.8l0.4,0.7c0.1,0.2,0.3,0.4,0.6,0.5c0.1,0,0.2,0.1,0.4,0.1v0.1h10.4
		c0.1,0.2,0.1,0.5,0.4,0.6c0.1,0.3,0.4,0.5,0.7,0.6c0.2,0.1,0.6,0.2,0.8,0.4c0.2,0,0.6,0.1,0.8,0.1c0.3,0,0.6,0,0.8-0.1
		s0.6-0.1,0.8-0.4c0.3-0.2,0.5-0.4,0.7-0.6c0.1-0.2,0.2-0.4,0.4-0.6H253v-1.4h-4C248.5,59.7,248.3,59.6,248.3,59.4 M239.1,60.1
		c0,0.2,0,0.5-0.1,0.7c-0.1,0.1-0.1,0.2-0.2,0.4c-0.1,0.1-0.2,0.1-0.4,0.1h-1.1c-0.1,0-0.2-0.1-0.4-0.1c-0.1-0.1-0.2-0.2-0.2-0.4
		c-0.1-0.2-0.1-0.4-0.1-0.6v-4.5c0-0.2,0-0.4,0.1-0.6c0.1-0.1,0.1-0.2,0.2-0.4c0.1-0.1,0.2-0.1,0.4-0.1s0.4,0,0.6-0.1
		c0.2,0,0.3,0,0.5,0.1c0.1,0,0.2,0.1,0.4,0.2c0.1,0.1,0.2,0.2,0.2,0.4c0.1,0.2,0.1,0.4,0.1,0.6V60.1z M155.9,61.8l0.6-0.4l0.7-0.4
		l0.2-0.1V50.5H156v11.3H155.9z M131.1,61.8l0.6-0.4l0.7-0.4l0.2-0.1V50.5h-1.4v11.3H131.1z M153.2,58.7c0,0.3-0.1,0.5-0.2,0.7
		c-0.2,0.2-0.5,0.3-0.8,0.2h-6.6c-0.3,0-0.6-0.1-0.8-0.2c-0.1-0.1-0.2-0.2-0.2-0.7v-3.9l-1.4,0.9v2.8c0,0.3,0,0.6,0.1,0.9
		c0.1,0.3,0.2,0.6,0.5,0.8c0.2,0.2,0.4,0.4,0.7,0.5s0.7,0.2,1.1,0.2h6.6c0.6,0,1.3-0.2,1.8-0.6c0.5-0.5,0.8-1.2,0.7-1.9v-5.2h-1.4
		v5.3L153.2,58.7z M135.4,53.5l0.1,0.4L135.4,53.5c-0.3,0.1-0.6,0.3-0.8,0.5s-0.4,0.4-0.6,0.7c-0.1,0.3-0.2,0.7-0.2,1.1v3
		c0,0.3,0,0.6,0.1,0.9c0.2,0.6,0.7,1.1,1.3,1.3c0.3,0.1,0.7,0.2,1.1,0.2h1.5v0.5c0,0.3-0.1,0.7-0.2,0.9c-0.1,0.2-0.3,0.5-0.5,0.6
		s-0.5,0.2-0.7,0.2c-0.3,0.1-0.5,0.1-0.8,0.1H135l-0.9-0.1L135,65h0.5c0.4,0,0.7,0,1.1-0.1c0.4-0.1,0.8-0.3,1.2-0.5
		c0.4-0.3,0.7-0.6,0.9-1.1s0.4-1.1,0.4-1.7v-8.3h-3C135.9,53.4,135.6,53.4,135.4,53.5 M137.8,59.7h-1.7c-0.2,0-0.4-0.1-0.6-0.2
		c-0.1-0.2-0.2-0.5-0.2-0.7v-3c0-0.3,0.1-0.5,0.2-0.7c0.1-0.1,0.2-0.2,0.7-0.2h1.7L137.8,59.7L137.8,59.7z M93.7,61.8L93.7,61.8v0.6
		c0,0.1-0.1,0.2-0.2,0.4l-0.4,0.4c-0.2,0.1-0.4,0.3-0.6,0.4l-0.4,0.2l0.7,0.9l0.2,0.2l0.2-0.1c0.3-0.1,0.6-0.3,0.8-0.5
		c0.2-0.2,0.4-0.4,0.6-0.7c0.1-0.2,0.2-0.6,0.4-0.8c0.1-0.3,0.1-0.7,0.1-1.1v-8.3h-1.5L93.7,61.8z M182,50.2c-0.5,0-0.8,0.4-0.8,0.8
		c0,0.5,0.4,0.8,0.8,0.8l0,0l0,0c0.5,0,0.8-0.4,0.8-0.8c0-0.2-0.1-0.4-0.2-0.6C182.5,50.2,182.3,50.2,182,50.2 M272.8,54l-0.2,0.2
		L272.8,54c-0.2-0.2-0.5-0.4-0.8-0.5s-0.7-0.1-1.1-0.1h-2.3v-0.9c0-0.2,0.2-0.3,0.4-0.4c0.1,0,0.2-0.1,0.5-0.1h2.7v-1.4h-2.6
		c-0.6,0-1.3,0.2-1.8,0.6c-0.5,0.5-0.8,1.2-0.7,1.9V55h4c0.1,0,0.2,0.1,0.2,0.1c0.1,0,0.1,0.1,0.1,0.2s0.1,0.2,0.1,0.5v3
		c0.1,0.5-0.3,0.9-0.7,0.9c-0.1,0-0.2,0-0.2,0h-11.9v-6.3h-1.4v8.4c0,0.2,0,0.4-0.1,0.6c0,0.1-0.1,0.2-0.2,0.4l-0.4,0.4
		c-0.2,0.1-0.4,0.3-0.6,0.4l-0.4,0.2l0.7,0.9l0.2,0.2l0.2-0.1c0.2-0.1,0.6-0.4,0.8-0.5c0.2-0.2,0.4-0.4,0.6-0.7
		c0.1-0.2,0.2-0.6,0.4-0.8c0.1-0.3,0.1-0.7,0.1-1.1v-0.5h11.7c0.6,0,1.3-0.2,1.8-0.6c0.5-0.5,0.7-1.1,0.7-1.8v-3.1
		c0-0.3,0-0.6-0.1-0.9C273.2,54.5,272.9,54.2,272.8,54 M128.5,58.8v0.4c0,0.1,0,0.1-0.1,0.2c0,0.1-0.1,0.1-0.2,0.1s-0.2,0.1-0.4,0.1
		h-3.1v-3.9c0-0.4-0.1-0.8-0.2-1.2c-0.1-0.3-0.4-0.6-0.7-0.7c-0.2-0.2-0.5-0.3-0.8-0.4c-0.3-0.1-0.6-0.1-0.9-0.1s-0.6,0-0.9,0.1
		s-0.6,0.2-0.8,0.4c-0.3,0.3-0.5,0.5-0.7,0.8c-0.1,0.4-0.2,0.8-0.2,1.2v4H113c0.2-0.4,0.6-0.7,0.8-1.1c0.5-0.5,1-1,1.5-1.4l0.1-0.1
		v-0.5c0-0.5-0.1-1-0.4-1.4c-0.2-0.4-0.5-0.7-0.8-1.1c-0.4-0.3-0.8-0.5-1.2-0.6c-0.4-0.1-0.9-0.2-1.3-0.2s-0.9,0.1-1.3,0.2
		c-0.5,0.1-0.9,0.4-1.2,0.7c-0.4,0.3-0.7,0.6-0.8,1.1c-0.2,0.4-0.4,0.9-0.4,1.4v0.5l0.1,0.1c0.5,0.5,1.1,1,1.5,1.5
		c0.3,0.3,0.6,0.7,0.8,1.1H98.5c-0.1,0-0.3,0-0.4-0.1c-0.1,0-0.1-0.1-0.1-0.3V51h-1.4v8.4c0,0.3,0,0.6,0.1,0.8l0.4,0.7
		c0.1,0.2,0.3,0.4,0.6,0.5c0.1,0,0.2,0.1,0.4,0.1v0.1h13.3c0.2,0,0.4,0,0.5-0.1h0.2c0.1,0.1,0.3,0.1,0.5,0.1h6.9
		c0,0.2,0.1,0.4,0.2,0.6c0.2,0.2,0.4,0.5,0.7,0.6c0.3,0.1,0.5,0.3,0.8,0.4c0.2,0,0.6,0.1,0.8,0.1c0.3,0,0.6,0,0.8-0.1
		c0.2-0.1,0.6-0.1,0.8-0.4c0.3-0.2,0.5-0.4,0.7-0.6c0.1-0.2,0.2-0.4,0.4-0.6h3.2c0.6,0,1.1-0.2,1.5-0.6c0.4-0.5,0.6-1.1,0.6-1.7V51
		h-1.4v7.8H128.5z M111.9,58.8c-0.2-0.4-0.6-0.7-0.8-1.1c-0.4-0.5-0.8-0.9-1.2-1.3c0-0.2,0.1-0.4,0.1-0.6c0.1-0.2,0.3-0.5,0.5-0.6
		l0.7-0.4c0.3-0.1,0.5-0.1,0.8-0.1s0.6,0,0.8,0.1l0.7,0.4c0.2,0.1,0.4,0.3,0.5,0.6c0.1,0.2,0.1,0.4,0.2,0.6
		c-0.5,0.4-0.9,0.8-1.3,1.3C112.5,58,112.1,58.4,111.9,58.8 M123.2,60.1c0,0.4,0,0.5-0.1,0.6s-0.1,0.2-0.2,0.4
		c-0.1,0.1-0.2,0.1-0.4,0.1h-1.1c-0.1,0-0.2-0.1-0.4-0.1c-0.1-0.1-0.2-0.2-0.2-0.4c-0.1-0.2-0.1-0.4-0.1-0.6v-4.4
		c0-0.2,0-0.4,0.1-0.6c0.1-0.1,0.1-0.2,0.2-0.4c0.1-0.1,0.2-0.1,0.4-0.1c0.1,0,0.4-0.1,0.5-0.1c0.2,0,0.3,0,0.5,0.1
		c0.1,0,0.2,0.1,0.4,0.2c0.1,0.1,0.2,0.2,0.2,0.4c0.1,0.2,0.1,0.4,0.1,0.6L123.2,60.1L123.2,60.1z"/>
	<path id="Path_67" class="st0" d="M257.6,10.9c-0.1-4.1,3.2-7.5,7.4-7.6c4.1-0.1,7.5,3.2,7.6,7.4c0.1,4.1-3.2,7.5-7.4,7.6h-0.1
		C261,18.3,257.7,15,257.6,10.9 M271.2,10.8c-0.1-3.3-2.8-5.9-6.1-5.9c-3.3,0-6,2.6-6.1,5.9l0,0c0,3.3,2.7,6,6.1,6.1l0,0
		C268.4,16.8,271.1,14.1,271.2,10.8"/>
	<path id="Path_68" class="st0" d="M285.9,18h-1.4L276,6.2v10.6h1.8V18h-5.1v-1.3h1.9V5.1h-1.9V3.8h3.3l8.4,12V5.1h-1.8V3.8h5.1v1.3
		h-1.9L285.9,18z"/>
	<g id="Group_26" transform="translate(0.111 0.111)">
		<path id="Path_69" class="st0" d="M26,10.4c0.9,0.6,1.8,1,2.8,1.3c1.2,0.4,2.4,0.6,3.7,0.8h0.2c1.2-0.2,2.5-0.5,3.7-0.8
			c1-0.3,2-0.7,2.9-1.3c0.2-0.2,0.3-0.4,0.2-0.7V9.4l0,0V9.1l0,0c0-0.1-0.1-0.4-0.1-0.5c0.1,0.3,0,0.6-0.2,0.7
			c-0.8,0.4-1.6,0.8-2.5,0.9c-1.3,0.4-2.6,0.6-3.9,0.8c-1.3-0.2-2.6-0.5-3.9-0.8C28,10,27.2,9.7,26.4,9.3C26.1,9.2,26,9,26,8.7V8.6
			c0,0.1-0.1,0.4-0.1,0.5l0,0v0.2l0,0v0.4C25.7,10.2,25.9,10.3,26,10.4"/>
		<path id="Path_70" class="st0" d="M29.3,3.5c0.4,0.4,1,0.7,1.5,0.8c0.5,0.2,1.1,0.3,1.7,0.4h0.1c0.6-0.1,1.2-0.2,1.7-0.4
			c0.6-0.2,1.1-0.5,1.5-0.8c0.1-0.1,0.1-0.3,0.1-0.5c-0.1-0.1-0.2-0.2-0.2-0.4l0,0l-0.1-0.1l0,0c-0.1-0.1-0.1-0.2-0.2-0.2
			c0.1,0.1,0.1,0.3,0,0.5c-0.4,0.2-0.7,0.3-1,0.4c-0.5,0.1-1.1,0.2-1.8,0.4l-1.8-0.4c-0.3-0.1-0.6-0.2-0.9-0.4
			c-0.1-0.1-0.2-0.2,0-0.5c-0.1,0.1-0.1,0.2-0.2,0.2l0,0c0,0.1,0,0.1-0.1,0.1l0,0l0,0c-0.1,0.1-0.2,0.2-0.2,0.4
			C29.2,3.3,29.2,3.4,29.3,3.5"/>
		<path id="Path_71" class="st0" d="M34.4,1.3c0.2,0.1,0.4,0.1,0.6,0.2c-0.4-0.5-0.9-0.9-1.4-1.3h-0.1c-0.4-0.3-1-0.3-1.4,0
			c-0.1,0-0.1,0-0.1,0.1l0,0l0,0c-0.5,0.4-1.1,0.9-1.5,1.4c0.1,0,0.2-0.1,0.4-0.1C31.8,1,33.2,0.8,34.4,1.3"/>
		<path id="Path_72" class="st0" d="M25.6,11.3V12l0,0v0.5l0,0v0.2c0,0.3,0.2,0.6,0.5,0.7c0.8,0.5,1.7,0.8,2.6,1.1
			c1.2,0.4,2.5,0.6,3.8,0.8h0.2c1.3-0.2,2.5-0.5,3.8-0.8c0.9-0.3,1.8-0.6,2.6-1.1c0.2-0.2,0.4-0.4,0.5-0.7v-0.2l0,0V12l0,0v-0.6
			c0,0.3-0.2,0.7-0.5,0.8c-0.8,0.4-1.6,0.7-2.4,0.9c-1.3,0.4-2.7,0.6-4,0.8c-1.4-0.2-2.7-0.5-4-0.8c-0.9-0.2-1.7-0.5-2.5-0.9
			C25.9,12,25.7,11.7,25.6,11.3L25.6,11.3"/>
		<path id="Path_73" class="st0" d="M27.8,5.3c0.6,0.6,1.4,0.9,2.3,1.1c0.8,0.3,1.6,0.5,2.5,0.6h0.1c0.9-0.1,1.8-0.3,2.6-0.6
			c0.8-0.3,1.6-0.7,2.2-1.2c0.2-0.1,0.2-0.4,0.1-0.6V4.5l0,0c0-0.1-0.1-0.1-0.1-0.2l-0.1-0.1l0,0C37.3,4,37.2,3.8,37,3.6
			c0.1,0.2,0.2,0.6,0,0.7c-0.5,0.3-1,0.5-1.5,0.6c-0.9,0.3-1.8,0.5-2.7,0.6c-0.9-0.1-1.8-0.3-2.7-0.6c-0.5-0.2-1-0.4-1.5-0.6
			c-0.2-0.2-0.1-0.5,0-0.7c-0.1,0.1-0.2,0.4-0.4,0.5l0,0c0,0.1-0.1,0.1-0.1,0.2s0,0.1-0.1,0.1l0,0l0,0v0.1C27.5,5,27.6,5.2,27.8,5.3
			"/>
		<path id="Path_74" class="st0" d="M26.6,7.7c0.8,0.6,1.7,1,2.7,1.3c1.1,0.4,2.2,0.6,3.3,0.7h0.2C34,9.5,35.1,9.2,36.2,9
			c1-0.3,1.9-0.7,2.7-1.3c0.2-0.2,0.2-0.4,0.1-0.6V7l0,0V6.9c0-0.1-0.1-0.2-0.1-0.4l0,0c0-0.1-0.1-0.2-0.2-0.4
			c0.1,0.2,0.1,0.5-0.1,0.6c-0.7,0.4-1.5,0.7-2.3,0.8c-1.1,0.4-2.3,0.6-3.4,0.7c-1.2-0.2-2.3-0.4-3.4-0.7C28.7,7.3,28,7,27.2,6.7
			C27,6.6,27,6.3,27.1,6.1C27,6.2,27,6.3,27,6.5l0,0c0,0.1-0.1,0.2-0.1,0.4V7l0,0v0.1C26.3,7.5,26.5,7.6,26.6,7.7"/>
		<path id="Path_75" class="st0" d="M34.5,27.2c-0.2,0.3-0.4,0.6-0.7,0.8h-0.2c-0.3,0.1-0.7,0.2-1.1,0.1c-0.4,0-0.7-0.1-1.1-0.1
			h-0.2c-0.3-0.2-0.6-0.5-0.7-0.8l0,0l0.4,0.9v0.1l0,0c0.5,1.3,0.9,1.9,1.4,1.9h0.5c0.5-0.2,0.8-0.8,1.2-1.9L34.5,27.2L34.5,27.2"/>
		<path id="Path_76" class="st0" d="M26,14.1L26,14.1"/>
		<path id="Path_77" class="st0" d="M26,14.2c0.1,0.2,0.1,0.5,0.2,0.7l0,0c0,0.1,0.1,0.2,0.1,0.2c0,0.1,0.1,0.4,0.1,0.5l0,0v0.1
			c0.1,0.4,0.4,0.7,0.7,0.8c0.6,0.2,1.2,0.5,1.9,0.7c1.2,0.4,2.3,0.6,3.6,0.7h0.2c1.3-0.2,2.5-0.5,3.6-0.7c0.6-0.2,1.3-0.4,1.9-0.7
			c0.3-0.2,0.6-0.5,0.7-0.8v-0.1l0,0c0-0.1,0.1-0.2,0.1-0.4s0.1-0.2,0.1-0.4l0,0c0.1-0.2,0.1-0.5,0.2-0.7c-0.3,0.4-0.6,0.8-1.1,1.1
			c-0.7,0.3-1.4,0.5-2.1,0.7c-1.2,0.4-2.4,0.6-3.7,0.7c-1.2-0.2-2.5-0.4-3.7-0.7c-0.7-0.2-1.4-0.4-2.1-0.7
			C26.4,15,26.1,14.7,26,14.2"/>
		<path id="Path_78" class="st0" d="M37.6,19.1l0.4-0.9l0.2-0.5v-0.2l0,0c-0.2,0.6-0.7,0.9-0.9,0.9c-0.5,0.1-0.9,0.4-1.5,0.5
			c-1,0.3-2,0.5-3.1,0.6c-1-0.1-2.1-0.3-3.1-0.6c-0.5-0.1-1-0.3-1.5-0.5c-0.4-0.2-0.7-0.5-0.8-0.9v0.2l0.4,0.8l0.2,0.6
			c0.1,0.3,0.4,0.6,0.7,0.7c0.4,0.1,0.8,0.3,1.2,0.5c1,0.3,2,0.5,3,0.6H33c1-0.1,2-0.3,3-0.6c0.4-0.1,0.8-0.2,1.2-0.5
			C37,19.7,37.4,19.4,37.6,19.1"/>
		<path id="Path_79" class="st0" d="M35.8,23.7c-0.2,0.6-0.6,0.9-0.8,0.9c-0.2,0.1-0.5,0.1-0.7,0.2c-0.5,0.1-1.1,0.2-1.7,0.4
			C32,25.1,31.4,25,31,24.9c-0.2-0.1-0.5-0.1-0.7-0.2c-0.4-0.2-0.6-0.6-0.8-0.9l0,0l0.4,0.8l0.2,0.7c0.1,0.3,0.4,0.6,0.7,0.7
			c0.1,0,0.1,0,0.2,0.1c0.5,0.1,1.1,0.2,1.7,0.4h0.2c0.6-0.1,1.2-0.2,1.7-0.4c0.1,0,0.1,0,0.2-0.1c0.3-0.1,0.6-0.4,0.7-0.7l0,0
			l0.1-0.1L35.8,23.7L35.8,23.7"/>
		<path id="Path_80" class="st0" d="M36.1,21.6L35,21.9c-0.8,0.2-1.6,0.4-2.4,0.5c-0.8-0.1-1.6-0.2-2.4-0.5
			c-0.5-0.1-0.8-0.2-1.2-0.4c-0.4-0.2-0.7-0.5-0.8-0.9v-0.1l0.5,1.3l0.1,0.2l0,0c0.2,0.4,0.5,0.7,0.8,0.8c0.2,0.1,0.4,0.1,0.6,0.1
			c0.8,0.2,1.6,0.4,2.4,0.5h0.2c0.8-0.1,1.6-0.2,2.4-0.5c0.2,0,0.4-0.1,0.6-0.1c0.4-0.1,0.7-0.4,0.8-0.8l0,0l0.2-0.7l0.4-0.8v0.1
			C36.8,21.2,36.3,21.6,36.1,21.6"/>
		<path id="Path_81" class="st0" d="M39.3,14.1L39.3,14.1"/>
		<path id="Path_82" class="st0" d="M26,51.1L26,51.1"/>
		<path id="Path_83" class="st0" d="M39.3,51L39.3,51"/>
		<path id="Path_84" class="st0" d="M30.6,38.1L30.6,38.1c0.1-0.3,0.4-0.6,0.7-0.8h0.2c0.3-0.1,0.7-0.2,1.1-0.1
			c0.4,0,0.7,0.1,0.9,0.1h0.2c0.3,0.2,0.6,0.5,0.7,0.8v0.1L34,37.1c-0.4-1.1-0.7-1.7-1.2-1.9h-0.5c-0.6,0.1-1.1,0.6-1.4,1.9l0,0v0.1
			L30.6,38.1z"/>
		<path id="Path_85" class="st0" d="M29.1,43.5c0.4-0.1,0.7-0.2,1.2-0.4c0.8-0.2,1.6-0.4,2.4-0.5c0.8,0.1,1.6,0.2,2.4,0.5
			c0.4,0.1,0.7,0.2,1.1,0.4c0.4,0.2,0.7,0.5,0.8,0.9v0.1l-0.2-0.8L36.6,43l0,0c-0.2-0.4-0.5-0.7-0.8-0.8c-0.2-0.1-0.4-0.1-0.6-0.1
			c-0.8-0.2-1.6-0.4-2.4-0.5h-0.2c-0.8,0.1-1.6,0.2-2.4,0.5c-0.2,0-0.4,0.1-0.6,0.1c-0.4,0.1-0.7,0.4-0.8,0.8l0,0l-0.1,0.2L28,44.6
			v-0.1C28.3,44.1,28.6,43.8,29.1,43.5"/>
		<path id="Path_86" class="st0" d="M39.3,51c-0.1-0.2-0.1-0.5-0.2-0.7l0,0c0-0.1-0.1-0.2-0.1-0.4s-0.1-0.2-0.1-0.4l0,0v-0.1
			c-0.1-0.4-0.4-0.7-0.7-0.8c-0.6-0.2-1.2-0.5-1.9-0.7c-1.2-0.4-2.3-0.6-3.6-0.7h-0.2c-1.3,0.2-2.5,0.5-3.6,0.7
			c-0.6,0.2-1.3,0.4-1.9,0.7c-0.3,0.2-0.6,0.5-0.7,0.8v0.1l0,0c0,0.1-0.1,0.2-0.1,0.5c0,0.1-0.1,0.2-0.1,0.2l0,0
			c-0.1,0.2-0.1,0.5-0.2,0.7c0.1-0.5,0.4-0.9,0.8-1.1c0.7-0.3,1.4-0.5,2.1-0.7c1.2-0.4,2.4-0.6,3.7-0.7c1.2,0.1,2.5,0.3,3.7,0.7
			c0.7,0.2,1.4,0.4,2.1,0.7C38.7,50,39.2,50.5,39.3,51"/>
		<path id="Path_87" class="st0" d="M27.4,46.6l-0.2,0.8v0.2c0.2-0.4,0.5-0.7,0.8-0.9c0.5-0.2,1-0.4,1.5-0.5c1-0.3,2-0.5,3.1-0.6
			c1,0.1,2.1,0.3,3.1,0.6c0.6,0.1,1.1,0.4,1.5,0.5c0.4,0.2,0.8,0.5,0.9,0.9l0,0v-0.2L37.8,47l-0.2-0.8c-0.1-0.4-0.3-0.7-0.7-0.7
			c-0.4-0.1-0.8-0.3-1.2-0.5c-1-0.3-2-0.5-3-0.6h-0.2c-1,0.1-2,0.3-3,0.6c-0.4,0.1-0.8,0.2-1.2,0.5c-0.3,0.2-0.5,0.4-0.7,0.7
			L27.4,46.6z"/>
		<path id="Path_88" class="st0" d="M38.7,57.4c-0.8-0.6-1.7-1-2.7-1.3c-1.1-0.4-2.2-0.6-3.3-0.7h-0.2c-1.2,0.2-2.3,0.5-3.3,0.7
			c-1,0.3-1.9,0.7-2.7,1.3c-0.2,0.2-0.2,0.4-0.1,0.6v0.1l0,0v0.1c0,0.1,0.1,0.2,0.1,0.4l0,0c0,0.1,0.1,0.2,0.1,0.4
			c-0.1-0.2-0.1-0.4,0.1-0.6c0.7-0.4,1.5-0.7,2.3-0.8c1.1-0.4,2.3-0.6,3.4-0.7c1.3,0.2,2.4,0.5,3.4,0.7c0.8,0.2,1.5,0.5,2.3,0.8
			c0.2,0.1,0.2,0.4,0.1,0.6c0.1-0.1,0.1-0.2,0.2-0.4l0,0c0-0.1,0.1-0.2,0.1-0.4v-0.1l0,0V58C38.9,57.8,38.7,57.5,38.7,57.4"/>
		<path id="Path_89" class="st0" d="M29.4,41.4c0.2-0.6,0.6-0.9,0.8-0.9c0.2-0.1,0.5-0.1,0.7-0.2c0.5-0.1,1.1-0.2,1.7-0.4
			c0.6,0.1,1.2,0.2,1.7,0.4c0.2,0.1,0.5,0.1,0.7,0.2c0.4,0.2,0.6,0.6,0.8,0.9v0.1l-0.5-1.4L35.2,40l0,0c-0.1-0.3-0.4-0.6-0.7-0.7
			c-0.1,0-0.1,0-0.2-0.1c-0.5-0.1-1.1-0.2-1.7-0.4h-0.2c-0.6,0.1-1.2,0.2-1.7,0.4c-0.1,0-0.1,0-0.2,0.1c-0.3,0.1-0.6,0.4-0.7,0.7
			l-0.2,0.7L29.4,41.4L29.4,41.4"/>
		<path id="Path_90" class="st0" d="M30.6,63.8c-0.1,0-0.2-0.1-0.4-0.1c0.5,0.5,1,1,1.5,1.4l0,0c0.1,0,0.1,0,0.1,0.1l0,0
			c0.4,0.2,1,0.2,1.4,0h0.1c0.5-0.4,1-0.8,1.4-1.3c-0.2,0.1-0.4,0.1-0.6,0.2C33,64.3,31.8,64.2,30.6,63.8"/>
		<path id="Path_91" class="st0" d="M35.8,62.2c-0.4-0.4-1-0.7-1.5-0.8c-0.5-0.2-1.1-0.3-1.7-0.4h-0.1c-0.6,0.1-1.2,0.2-1.7,0.4
			c-0.6,0.2-1.1,0.5-1.5,0.8c-0.1,0.1-0.1,0.3-0.1,0.5c0.1,0.1,0.2,0.2,0.2,0.4l0,0c0,0.1,0,0.1,0.1,0.1l0,0l0,0
			c0.1,0.1,0.1,0.2,0.2,0.2c-0.1-0.1-0.1-0.3,0-0.5c0.3-0.1,0.6-0.3,0.9-0.4c0.5-0.1,1.1-0.2,1.8-0.4l1.8,0.4
			c0.3,0.1,0.6,0.2,0.9,0.4c0.1,0.1,0.2,0.2,0,0.5c0.1-0.1,0.1-0.2,0.2-0.2l0,0l0.1-0.1l0,0c0.1-0.1,0.2-0.2,0.2-0.4
			C36.1,62.4,36.1,62.3,35.8,62.2"/>
		<path id="Path_92" class="st0" d="M39.5,54v-0.7l0,0v-0.5l0,0v-0.2c0-0.3-0.2-0.6-0.5-0.7c-0.8-0.5-1.7-0.8-2.6-1.1
			c-1.2-0.4-2.5-0.6-3.8-0.8h-0.2c-1.3,0.2-2.5,0.5-3.8,0.8c-0.9,0.3-1.8,0.7-2.6,1.1c-0.2,0.2-0.4,0.4-0.5,0.7v0.2l0,0v1.1
			c0-0.3,0.2-0.7,0.5-0.8c0.8-0.4,1.6-0.7,2.5-0.9c1.3-0.4,2.7-0.6,4-0.8c1.4,0.2,2.7,0.5,4,0.8c0.8,0.2,1.6,0.5,2.4,0.9
			c0.3,0.2,0.5,0.5,0.5,0.8C39.5,53.9,39.5,53.9,39.5,54L39.5,54"/>
		<path id="Path_93" class="st0" d="M37.5,59.9c-0.7-0.6-1.4-1-2.3-1.2c-0.9-0.3-1.7-0.5-2.6-0.6h-0.1c-0.9,0.1-1.8,0.3-2.6,0.6
			c-0.8,0.3-1.6,0.7-2.3,1.2c-0.2,0.1-0.2,0.4-0.1,0.6v0.1l0,0c0,0.1,0,0.1,0.1,0.1l0,0c0,0.1,0.1,0.1,0.1,0.2l0,0
			c0.1,0.1,0.2,0.4,0.4,0.5c-0.1-0.2-0.2-0.5,0-0.7c0.5-0.3,1-0.5,1.5-0.6c0.9-0.3,1.8-0.5,2.7-0.6c0.9,0.1,1.8,0.3,2.7,0.6l0,0
			c0.5,0.2,1,0.4,1.5,0.6c0.2,0.2,0.1,0.5,0,0.7c0.1-0.2,0.3-0.4,0.4-0.6l0,0l0.1-0.1c0-0.1,0.1-0.1,0.1-0.2l0,0v-0.1
			C37.7,60.2,37.5,59.9,37.5,59.9"/>
		<path id="Path_94" class="st0" d="M39.2,54.7c-0.9-0.6-1.8-1-2.8-1.3c-1.2-0.4-2.4-0.6-3.7-0.8h-0.2c-1.2,0.2-2.5,0.5-3.7,0.8
			c-1,0.3-2,0.7-2.8,1.3c-0.2,0.2-0.3,0.4-0.2,0.7v0.4l0,0V56l0,0c0,0.1,0.1,0.4,0.1,0.5c-0.1-0.3,0-0.5,0.2-0.7
			c0.8-0.4,1.6-0.8,2.5-0.9c1.3-0.4,2.6-0.6,3.9-0.8c1.3,0.2,2.6,0.5,3.9,0.8c0.9,0.2,1.7,0.5,2.5,0.9c0.3,0.1,0.4,0.4,0.2,0.7l0,0
			c0-0.1,0.1-0.4,0.1-0.5l0,0v-0.2l0,0v-0.4C39.4,55.3,39.4,55,39.2,54.7C39.2,54.8,39.2,54.7,39.2,54.7"/>
		<path id="Path_95" class="st0" d="M21.3,21.3c-1,0.8-2,1.5-3.1,2.1c-0.6,0.4-1.3,0.7-2,0.9l0,0c-0.4,0.1-0.9,0.1-1.3-0.1l0.7,0.4
			l0,0c0.1,0,0.2,0.1,0.2,0.1c0.1,0.1,0.2,0.1,0.4,0.2l0,0c0.1,0,0.1,0,0.1,0.1l0,0c0.3,0.1,0.7,0.2,1.1,0.1
			c0.6-0.2,1.2-0.5,1.9-0.8c1.1-0.5,2.1-1.2,3-2l0,0c0.7-1.1,1.4-2,2-3c0.4-0.7,0.6-1.3,0.8-1.9c0.1-0.4,0.1-0.8-0.1-1.1
			c0-0.1,0-0.1-0.1-0.1l0,0l0,0c-0.1-0.1-0.1-0.2-0.2-0.4c0-0.1-0.1-0.2-0.1-0.4l0,0l-0.4-0.7c0.3,0.4,0.4,0.9,0.2,1.3
			c-0.2,0.7-0.6,1.4-0.9,2C22.8,19.3,22.1,20.4,21.3,21.3"/>
		<path id="Path_96" class="st0" d="M23.4,23.4c-0.8,0.6-1.7,1.2-2.6,1.8c-0.5,0.3-1,0.6-1.5,0.7c-0.4,0.2-0.9,0.2-1.3,0h0.2
			l0.8,0.4l0.5,0.2c0.3,0.2,0.7,0.2,1.1,0s0.8-0.4,1.2-0.6c0.8-0.5,1.7-1.1,2.5-1.7l0,0c0.6-0.8,1.2-1.7,1.7-2.5
			c0.2-0.4,0.4-0.8,0.6-1.2c0.1-0.3,0.1-0.7,0-1.1l-0.4-0.8L26,18.1l0,0c0-0.1,0-0.1-0.1-0.1l0,0l0,0c0.2,0.4,0.2,0.9,0,1.3
			c-0.2,0.5-0.4,1-0.7,1.4C24.6,21.7,24,22.6,23.4,23.4"/>
		<path id="Path_97" class="st0" d="M14,9L14,9z"/>
		<path id="Path_98" class="st0" d="M26.5,29.3c0.1,0,0.1-0.1,0.2-0.1c0.5-0.3,1-0.6,1.4-0.9l0,0c0.4-0.4,0.7-0.9,0.9-1.4
			c0-0.1,0.1-0.1,0.1-0.2c0.1-0.3,0.1-0.6,0-0.9l0,0L29,25.7l-0.6-1.3v0.1c0.1,0.4,0.2,0.9,0.1,1.3l-0.4,0.7c-0.3,0.5-0.6,1-0.9,1.4
			c-0.4,0.4-0.9,0.7-1.4,0.9l-0.7,0.4c-0.1,0.1-0.6,0.1-1.3-0.1l0,0l0.8,0.4l0.7,0.4C25.8,29.6,26.1,29.5,26.5,29.3"/>
		<path id="Path_99" class="st0" d="M21.6,16c-0.6,1.1-1.4,2.3-2.3,3.4c-1.1,0.9-2.2,1.6-3.4,2.3c-0.9,0.5-1.8,0.8-2.4,1.1
			c-0.3,0.1-0.7,0-0.9-0.2l-0.1-0.1L13,23l0,0l0.4,0.4l0,0l0.2,0.2c0.2,0.2,0.5,0.3,0.8,0.2c0.9-0.3,1.8-0.7,2.6-1.1
			c1.1-0.6,2.2-1.3,3.2-2.1l0,0c0.8-1,1.5-2.1,2.1-3.2c0.4-0.8,0.8-1.7,1.1-2.6c0-0.3-0.1-0.6-0.2-0.8c0-0.1-0.1-0.1-0.2-0.2l0,0
			l-0.4-0.4l0,0l-0.5-0.5l0.1,0.1c0.3,0.2,0.4,0.6,0.2,0.9C22.4,14.7,22.1,15.4,21.6,16"/>
		<path id="Path_100" class="st0" d="M30.7,31L30.7,31l0.1-0.1l0,0c0.1-0.1,0.1-0.1,0.1-0.2l0,0c0.1-0.7-0.1-1.5-0.5-2.1l0,0
			L30,27.5v0.1c0.2,0.3,0.2,0.7,0,1.1c0,0.1-0.1,0.1-0.1,0.2c-0.3,0.6-0.8,1.1-1.4,1.4c-0.1,0-0.1,0.1-0.2,0.1
			c-0.1,0.1-0.5,0.2-1.1,0l0,0l0.8,0.4h0.1C29.5,31.2,30.3,31.2,30.7,31"/>
		<path id="Path_101" class="st0" d="M14.8,24.2L14.8,24.2"/>
		<path id="Path_102" class="st0" d="M11.7,11.7c-0.5,0.4-1,0.7-1.5,0.9c-0.3,0.2-0.5,0.3-0.8,0.5C9.1,13.2,9,13,9,12.9v0.4l0,0v0.1
			l0,0v0.5c0,0.1,0.1,0.2,0.4,0.2c0.6-0.1,1.1-0.2,1.7-0.5c0.5-0.2,0.9-0.6,1.5-0.9l0,0c0.4-0.5,0.7-1,0.9-1.5
			c0.3-0.5,0.5-1.1,0.5-1.7c0-0.2-0.1-0.4-0.2-0.4h-0.9c0.2,0,0.4,0.1,0.2,0.4c-0.1,0.3-0.3,0.6-0.4,0.9
			C12.5,10.8,12.1,11.3,11.7,11.7"/>
		<path id="Path_103" class="st0" d="M25.4,25.4c-0.6,0.5-1.3,1-2,1.4c-0.4,0.2-0.7,0.4-1.1,0.6s-0.9,0.1-1.3-0.1h-0.1l1.3,0.6
			l0.2,0.1l0,0c0.4,0.2,0.8,0.2,1.2,0c0.1-0.1,0.4-0.1,0.5-0.2c0.6-0.4,1.3-0.8,2-1.3l0,0c0.5-0.6,0.9-1.3,1.3-2
			c0.1-0.1,0.2-0.3,0.2-0.5c0.2-0.4,0.2-0.8,0-1.2l0,0l-0.4-0.7l-0.1-1.2c0,0.1,0,0.1,0.1,0.1l0,0c0.1,0.4,0.2,0.9,0.1,1.3
			c-0.2,0.4-0.4,0.7-0.6,1.1C26.4,24.1,25.9,24.8,25.4,25.4"/>
		<path id="Path_104" class="st0" d="M11.7,9.2C12,9.1,12.1,9.1,12.3,9c-0.7,0-1.4,0-2,0.1h-0.2C9.6,9.2,9.2,9.6,9.2,10v0.1l0,0
			C9,10.9,9,11.5,9,12.2c0-0.1,0.1-0.2,0.1-0.4C9.7,10.7,10.6,9.8,11.7,9.2"/>
		<path id="Path_105" class="st0" d="M24.2,14.8L24.2,14.8"/>
		<path id="Path_106" class="st0" d="M14.1,19.6c-0.8,0.4-1.6,0.8-2.5,1.1c-0.3,0-0.6-0.1-0.7-0.4c0.1,0.1,0.2,0.3,0.2,0.5l0,0
			c0,0.1,0,0.1,0.1,0.1l0,0c0,0.1,0,0.1,0.1,0.1l0,0l0,0c0.1,0.1,0.1,0.2,0.2,0.4c0.2,0.2,0.5,0.3,0.7,0.2c1-0.2,2-0.6,3-1.1
			c1.1-0.6,2.2-1.3,3.2-2l0,0c0.8-1,1.5-2.1,2-3.2c0.5-0.9,0.9-1.8,1.1-2.8c0-0.3-0.1-0.5-0.2-0.7c-0.1-0.1-0.2-0.1-0.4-0.2l0,0
			c-0.1,0-0.1,0-0.1-0.1l0,0c-0.1,0-0.1,0-0.1-0.1l0,0l0,0c-0.1-0.1-0.3-0.2-0.5-0.2c0.3,0.1,0.4,0.4,0.4,0.7
			c-0.3,0.8-0.6,1.6-1.1,2.4c-0.7,1.2-1.4,2.3-2.3,3.3C16.3,18.2,15.2,18.9,14.1,19.6"/>
		<path id="Path_107" class="st0" d="M13.6,13.6c-0.8,0.6-1.5,1.1-2.3,1.5c-0.5,0.3-1,0.6-1.5,0.7c-0.2,0-0.5-0.2-0.5-0.4v-0.1
			c0,0.2,0.1,0.4,0.1,0.6l0,0c0,0.1,0,0.2,0.1,0.2v0.1l0,0v0.1c0.1,0.2,0.3,0.3,0.5,0.4c0.8-0.1,1.6-0.3,2.4-0.7
			c0.8-0.4,1.6-0.9,2.3-1.4l0,0c0.6-0.7,1-1.5,1.4-2.3c0.4-0.7,0.7-1.5,0.7-2.4c0-0.2-0.1-0.4-0.4-0.5h-0.6c-0.2,0-0.4-0.1-0.6-0.1
			c0.2,0.1,0.6,0.1,0.6,0.5c-0.2,0.5-0.4,1.1-0.7,1.5l0,0C14.6,12.2,14.1,12.9,13.6,13.6"/>
		<path id="Path_108" class="st0" d="M17.4,12.6c-0.6,1-1.2,2-1.9,3c-1,0.7-1.9,1.3-3,1.9c-0.7,0.4-1.4,0.7-2.1,0.9
			c-0.2,0-0.4-0.1-0.5-0.4c0,0.1,0.1,0.2,0.1,0.4l0,0c0,0.1,0.1,0.2,0.1,0.4v0.1l0,0V19c0.1,0.2,0.3,0.4,0.6,0.4
			c1-0.1,2-0.5,2.8-0.9c1-0.5,2-1.1,2.8-1.8l0,0c0.7-0.9,1.3-1.8,1.8-2.8c0.5-0.9,0.8-1.8,0.9-2.8c0-0.2-0.1-0.5-0.4-0.6h-0.2
			c-0.1,0-0.2-0.1-0.4-0.1l0,0c-0.1,0-0.2-0.1-0.4-0.1c0.2,0.1,0.4,0.2,0.4,0.5C18.1,11.3,17.8,11.9,17.4,12.6"/>
		<path id="Path_109" class="st0" d="M36.8,39.2c0.3-0.5,0.6-1,0.9-1.4c0.4-0.4,0.9-0.7,1.4-0.9l0.7-0.4c0.1-0.1,0.6-0.1,1.3,0.1
			h0.1L40,35.9l-0.2-0.1l0,0c-0.3-0.1-0.6-0.1-0.9,0c-0.1,0-0.1,0.1-0.2,0.1c-0.5,0.3-1,0.6-1.4,0.9l0,0c-0.4,0.4-0.7,0.9-0.9,1.4
			c0,0.1-0.1,0.1-0.1,0.2c-0.1,0.3-0.1,0.6,0,0.9l0.4,0.7l0.4,0.8l0,0c-0.1-0.4-0.2-0.9-0.1-1.3C36.5,39.6,36.7,39.4,36.8,39.2"/>
		<path id="Path_110" class="st0" d="M55.4,49.4c0.4,0,0.5,0.2,0.5,0.6c0-0.2-0.1-0.4-0.1-0.6l0,0V49l0,0v-0.1
			c0-0.2-0.2-0.4-0.5-0.4c-0.8,0.1-1.6,0.3-2.4,0.7c-0.8,0.4-1.6,0.9-2.3,1.4l0,0c-0.6,0.7-1,1.5-1.4,2.3c-0.4,0.7-0.7,1.5-0.7,2.4
			c0,0.2,0.1,0.4,0.4,0.5h0.2c0.1,0,0.2,0,0.2,0.1l0,0c0.2,0,0.4,0.1,0.6,0.1c-0.2-0.1-0.6-0.2-0.5-0.5c0.2-0.5,0.4-1.1,0.7-1.5
			c0.4-0.8,0.9-1.6,1.5-2.3c0.8-0.6,1.5-1.1,2.3-1.5l0,0C54.4,49.8,54.9,49.6,55.4,49.4"/>
		<path id="Path_111" class="st0" d="M47.8,52.7c0.6-1,1.2-2,1.9-3c1-0.7,1.9-1.3,3-1.9c0.7-0.4,1.4-0.7,2.1-0.9
			c0.2,0,0.5,0.1,0.5,0.4c0-0.1-0.1-0.2-0.1-0.4l0,0c0-0.1-0.1-0.2-0.1-0.4v-0.1l0,0v-0.1c-0.1-0.2-0.3-0.4-0.6-0.4
			c-1,0.1-2,0.5-2.8,0.9c-1,0.5-2,1.1-2.8,1.8l0,0c-0.7,0.9-1.3,1.8-1.8,2.8c-0.5,0.9-0.8,1.8-0.9,2.8c0,0.2,0.1,0.5,0.4,0.6h0.2
			c0.1,0,0.2,0.1,0.4,0.1l0,0c0.1,0,0.2,0.1,0.4,0.1c-0.2-0.1-0.4-0.2-0.4-0.5C47.1,54,47.4,53.3,47.8,52.7"/>
		<path id="Path_112" class="st0" d="M35.1,36.5c0.3-0.6,0.8-1.1,1.4-1.4c0.1,0,0.1-0.1,0.2-0.1c0.1-0.1,0.5-0.2,1.1,0H38l-1-0.5
			c-0.6-0.4-1.4-0.6-2.1-0.5l0,0c-0.1,0-0.1,0.1-0.2,0.1l0,0C34.3,34.6,34.5,35.3,35.1,36.5L35.1,36.5L35.1,36.5l0.4,0.9l0,0
			c-0.2-0.3-0.2-0.7,0-1.1C35,36.7,35.1,36.7,35.1,36.5"/>
		<path id="Path_113" class="st0" d="M35.8,39.6L35.8,39.6L35.8,39.6z"/>
		<path id="Path_114" class="st0" d="M43.5,49.2c0.6-1.1,1.4-2.3,2.3-3.4c1.1-0.8,2.2-1.6,3.4-2.3c0.8-0.4,1.6-0.8,2.4-1.1
			c0.3-0.1,0.7,0,0.9,0.2l0.1,0.1l-0.5-0.5l0,0L51.9,42l0,0l-0.2-0.2c-0.2-0.2-0.5-0.3-0.8-0.2c-0.9,0.2-1.8,0.6-2.6,1.1
			c-1.3,0.5-2.3,1.2-3.3,2l0,0c-0.8,1-1.5,2.1-2.1,3.2c-0.4,0.8-0.8,1.7-1.1,2.6c0,0.3,0.1,0.6,0.2,0.8c0,0.1,0.1,0.1,0.2,0.2l0,0
			l0.4,0.4l0,0l0.5,0.5L43,52.3c-0.3-0.2-0.4-0.6-0.2-0.9C42.9,50.6,43.1,49.9,43.5,49.2"/>
		<path id="Path_115" class="st0" d="M50.3,40.9L50.3,40.9"/>
		<path id="Path_116" class="st0" d="M40.9,50.4L40.9,50.4"/>
		<path id="Path_117" class="st0" d="M51.1,45.6c0.9-0.5,1.8-0.8,2.4-1.1c0.3,0,0.6,0.1,0.7,0.4c-0.1-0.1-0.3-0.3-0.4-0.5l0,0
			c-0.1-0.1-0.2-0.2-0.2-0.2l0,0c-0.1-0.1-0.1-0.2-0.2-0.4c-0.2-0.2-0.5-0.3-0.7-0.2c-1,0.2-2,0.5-2.8,1.1c-1.1,0.6-2.2,1.3-3.2,2
			l0,0c-0.8,1-1.5,2.1-2,3.2c-0.5,0.9-0.9,1.9-1.1,3c0,0.3,0.1,0.5,0.2,0.7c0.1,0.1,0.2,0.1,0.4,0.2l0,0c0.1,0,0.1,0,0.1,0.1l0,0
			c0.1,0,0.1,0,0.1,0.1l0,0l0,0c0.1,0.1,0.3,0.2,0.5,0.2c-0.3-0.1-0.4-0.4-0.4-0.7c0.3-0.8,0.6-1.6,1.1-2.4c0.7-1.2,1.4-2.3,2.3-3.3
			C48.9,47,50,46.2,51.1,45.6"/>
		<path id="Path_118" class="st0" d="M43.8,43.9c1-0.8,2-1.5,3.1-2.1c0.6-0.4,1.3-0.7,2-0.9l0,0c0.4-0.1,0.9,0,1.3,0.2l-0.7-0.4l0,0
			c-0.1,0-0.2-0.1-0.4-0.1c-0.1-0.1-0.2-0.1-0.4-0.2l0,0c-0.1,0-0.1,0-0.1-0.1l0,0c-0.3-0.2-0.7-0.2-1.1-0.1
			c-0.6,0.2-1.2,0.5-1.9,0.8c-1.1,0.5-2.1,1.2-3,2l0,0c-0.7,1.1-1.4,2-2,3c-0.4,0.7-0.6,1.3-0.8,1.9c-0.1,0.4-0.1,0.8,0.1,1.1
			c0,0.1,0,0.1,0.1,0.1l0,0l0,0c0.1,0.1,0.1,0.2,0.2,0.4c0,0.1,0.1,0.1,0.1,0.2l0,0l0.4,0.7c-0.3-0.4-0.4-0.9-0.2-1.3l0,0
			c0.2-0.7,0.6-1.4,0.9-2C42.2,46,43.1,45,43.8,43.9"/>
		<path id="Path_119" class="st0" d="M41.8,41.8c0.8-0.6,1.7-1.2,2.6-1.8c0.4-0.3,0.9-0.5,1.4-0.7c0.4-0.2,0.9-0.2,1.3,0l0,0
			c-0.1,0-0.1,0-0.1-0.1l0,0l0,0L46.5,39l-0.8-0.4c-0.3-0.2-0.7-0.2-1.1,0c-0.4,0.2-0.8,0.4-1.2,0.6c-0.8,0.5-1.7,1.1-2.5,1.7l0,0
			c-0.6,0.8-1.2,1.7-1.7,2.5c-0.2,0.4-0.4,0.8-0.6,1.2c-0.1,0.3-0.1,0.7,0,1.1l0.2,0.5l0.4,0.8v0.2c-0.2-0.4-0.2-0.9,0-1.3
			c0.2-0.5,0.4-1,0.7-1.5C40.5,43.5,41.2,42.7,41.8,41.8"/>
		<path id="Path_120" class="st0" d="M39.7,39.7c0.6-0.5,1.3-1,2-1.4c0.4-0.2,0.7-0.4,1.1-0.6c0.4-0.2,0.9-0.1,1.3,0.1h0.1l-0.8-0.4
			L42.7,37l0,0c-0.4-0.2-0.8-0.2-1.2,0c-0.1,0.1-0.4,0.1-0.5,0.2c-0.6,0.4-1.3,0.8-2,1.3l0,0c-0.5,0.6-0.9,1.3-1.3,2
			c-0.1,0.1-0.2,0.3-0.2,0.5c-0.2,0.4-0.2,0.8,0,1.2l0,0l0.1,0.2l0.6,1.3v-0.1c-0.1-0.4-0.2-0.9-0.1-1.3c0.2-0.4,0.4-0.7,0.6-1.1
			C38.8,41.2,39.3,40.5,39.7,39.7"/>
		<path id="Path_121" class="st0" d="M53.4,53.4c0.5-0.4,1-0.7,1.5-0.9c0.3-0.2,0.6-0.3,0.9-0.4c0.2,0,0.4,0.1,0.4,0.2V52l0,0v-0.1
			l0,0v-0.5c0-0.1-0.1-0.2-0.4-0.2c-0.6,0.1-1.1,0.2-1.7,0.5c-0.5,0.2-0.9,0.6-1.5,0.9l0,0c-0.4,0.5-0.7,1-0.9,1.5
			c-0.3,0.5-0.5,1.1-0.5,1.7c0,0.2,0.1,0.4,0.2,0.4h0.9c-0.2,0-0.4-0.1-0.2-0.4c0.1-0.3,0.3-0.6,0.4-0.9
			C52.8,54.3,53.1,53.8,53.4,53.4"/>
		<path id="Path_122" class="st0" d="M53.2,56.1c-0.1,0-0.2,0.1-0.4,0.1c0.7,0,1.4,0,2-0.1h0.1c0.5-0.1,0.9-0.6,0.9-1.1v-0.2
			c0.1-0.7,0.1-1.3,0.1-2c-0.1,0.2-0.1,0.4-0.2,0.6C55.3,54.6,54.4,55.6,53.2,56.1"/>
		<path id="Path_123" class="st0" d="M19.8,36.9c0.1-0.4,0.3-0.8,0.5-1.2c0.3-1,0.5-2,0.6-3v-0.2c-0.1-1-0.3-2-0.6-3
			c-0.1-0.4-0.2-0.8-0.5-1.2c-0.1-0.3-0.4-0.6-0.7-0.7l-0.9-0.4l-0.5-0.1h-0.2c0.6,0.2,0.9,0.7,0.9,0.9c0.1,0.5,0.4,0.9,0.5,1.5
			c0.3,1,0.5,2,0.6,3.1c-0.1,1-0.3,2.1-0.6,3.1c-0.1,0.5-0.3,1-0.5,1.5c-0.2,0.4-0.5,0.7-0.9,0.8h0.2l0.8-0.4l0.6-0.2
			C19.4,37.4,19.6,37.2,19.8,36.9"/>
		<path id="Path_124" class="st0" d="M12.2,39c-0.2,0.3-0.5,0.5-0.8,0.5h1.3c0.3,0,0.6-0.2,0.7-0.5c0.5-0.8,0.8-1.7,1.1-2.6
			c0.4-1.2,0.6-2.5,0.8-3.8v-0.2c-0.2-1.3-0.5-2.5-0.8-3.8c-0.3-0.9-0.6-1.8-1.1-2.6c-0.2-0.2-0.4-0.4-0.7-0.5h-1.3
			c0.3,0,0.7,0.2,0.8,0.5c0.4,0.8,0.7,1.6,0.9,2.4c0.4,1.3,0.6,2.7,0.8,4c-0.2,1.4-0.5,2.7-0.8,4C12.9,37.3,12.6,38.2,12.2,39"/>
		<path id="Path_125" class="st0" d="M22.2,36.4L22.2,36.4c0.4-0.2,0.7-0.5,0.8-0.8c0.1-0.2,0.1-0.4,0.1-0.6
			c0.2-0.8,0.4-1.6,0.5-2.4v-0.2c-0.1-0.8-0.2-1.6-0.5-2.4c0-0.2-0.1-0.4-0.1-0.6c-0.1-0.4-0.4-0.7-0.8-0.8l0,0l-0.7-0.2L20.6,28
			h0.1c0.4,0.1,0.8,0.4,0.9,0.8l0.4,1.1c0.2,0.8,0.4,1.6,0.5,2.4c-0.1,0.8-0.2,1.6-0.5,2.4c-0.1,0.5-0.2,0.8-0.4,1.2
			c-0.2,0.4-0.5,0.7-0.9,0.8h-0.1l1.3-0.5L22.2,36.4z"/>
		<path id="Path_126" class="st0" d="M3.1,35.8c0.4-0.4,0.7-0.9,0.8-1.4c0.2-0.5,0.3-1.1,0.4-1.7l0,0v-0.1C4.1,32,4,31.4,3.9,31
			c-0.2-0.6-0.5-1.1-0.8-1.5c-0.1-0.1-0.3-0.1-0.5-0.1c-0.1,0-0.2,0.1-0.4,0.2l0,0v0.1l0,0C2.1,29.8,2,29.8,2,29.9
			c0.1-0.1,0.3-0.1,0.5,0c0.1,0.3,0.3,0.6,0.4,0.9c0.1,0.5,0.2,1.1,0.4,1.8l-0.4,1.8c-0.1,0.3-0.2,0.6-0.4,0.9
			c-0.2,0.1-0.4,0.1-0.6,0c0.1,0,0.2,0.1,0.4,0.2l0,0c0.1,0,0.1,0,0.1,0.1l0,0l0,0c0.1,0.1,0.2,0.2,0.4,0.2
			C2.7,36.1,2.8,36.1,3.1,35.8"/>
		<path id="Path_127" class="st0" d="M9.2,39.4h0.5c0.3,0,0.5-0.1,0.7-0.2c0.6-0.9,1-1.8,1.3-2.8c0.4-1.2,0.6-2.4,0.8-3.7v-0.2
			c-0.2-1.2-0.5-2.5-0.8-3.7c-0.3-1-0.7-2-1.3-2.8c-0.2-0.2-0.4-0.3-0.7-0.2H9.1c-0.1,0-0.4,0.1-0.5,0.1c0.3,0.1,0.5,0.2,0.7,0.5
			c0.4,0.8,0.8,1.6,0.9,2.5c0.4,1.3,0.6,2.6,0.8,3.9c-0.2,1.3-0.5,2.6-0.8,3.9c-0.2,0.9-0.5,1.7-0.9,2.5c-0.1,0.3-0.4,0.4-0.7,0.2
			l0,0C8.7,39.4,9,39.5,9.2,39.4L9.2,39.4"/>
		<path id="Path_128" class="st0" d="M4.6,37.4L4.6,37.4L4.6,37.4c0.3,0.2,0.5,0.1,0.7,0c0.6-0.7,1-1.4,1.2-2.3
			c0.3-0.9,0.5-1.7,0.6-2.6l0,0v-0.1c-0.1-0.9-0.3-1.8-0.6-2.6c-0.3-0.8-0.7-1.6-1.2-2.3c-0.1-0.2-0.4-0.2-0.6-0.1l0,0
			c-0.1,0-0.1,0.1-0.2,0.1l-0.1,0.1l0,0C4.1,27.8,4,27.9,3.8,28c0.2-0.1,0.6-0.2,0.7,0c0.3,0.5,0.5,1,0.6,1.5
			c0.3,0.9,0.5,1.8,0.6,2.7c-0.1,0.9-0.3,1.8-0.6,2.7c-0.2,0.5-0.4,1-0.6,1.5c-0.2,0.2-0.5,0.1-0.7,0c0.1,0.1,0.4,0.2,0.5,0.4l0,0
			C4.4,37.3,4.5,37.4,4.6,37.4"/>
		<path id="Path_129" class="st0" d="M1.5,30.3c-0.5,0.4-0.9,0.9-1.3,1.4v0.1l0,0c-0.3,0.4-0.3,1,0,1.4c0,0.1,0,0.1,0.1,0.1l0,0l0,0
			c0.4,0.5,0.9,1.1,1.4,1.5c0-0.1-0.1-0.2-0.1-0.4c-0.4-1.2-0.5-2.6-0.1-3.8C1.4,30.6,1.4,30.5,1.5,30.3"/>
		<path id="Path_130" class="st0" d="M9.8,32.6L9.8,32.6L9.8,32.6c-0.2-1.3-0.5-2.4-0.7-3.4c-0.3-1-0.7-1.9-1.3-2.7
			c-0.2-0.2-0.4-0.2-0.6-0.1H7c-0.1,0-0.2,0.1-0.4,0.1l0,0c-0.1,0-0.2,0.1-0.4,0.1c0.2-0.1,0.5-0.1,0.6,0.1c0.4,0.7,0.7,1.5,0.8,2.3
			c0.4,1.1,0.6,2.3,0.7,3.4c-0.2,1.2-0.4,2.3-0.7,3.4c-0.2,0.8-0.5,1.5-0.8,2.3c-0.1,0.2-0.4,0.2-0.6,0.1c0.1,0.1,0.2,0.1,0.4,0.1
			l0,0c0.1,0,0.2,0.1,0.4,0.1h0.2c0.2,0.1,0.5,0.1,0.6-0.1c0.6-0.8,1-1.7,1.3-2.7C9.4,34.6,9.7,33.6,9.8,32.6"/>
		<path id="Path_131" class="st0" d="M27.9,33.8c-0.2,0.3-0.5,0.6-0.8,0.7l0,0l0.9-0.4h0.1c1.3-0.5,1.9-0.9,1.9-1.4l0,0v-0.1l0,0
			v-0.4l0,0c-0.2-0.5-0.8-0.8-1.9-1.2l0,0L27,30.7h0.1c0.3,0.2,0.6,0.4,0.8,0.7v0.2c0.1,0.3,0.1,0.6,0.1,0.9c0,0.4-0.1,0.7-0.1,0.9
			C28,33.7,28,33.8,27.9,33.8"/>
		<path id="Path_132" class="st0" d="M25.3,29.9L25.3,29.9l0.1,0.1L25.3,29.9z"/>
		<path id="Path_133" class="st0" d="M14.1,39.3L14.1,39.3"/>
		<path id="Path_134" class="st0" d="M14.1,26L14.1,26"/>
		<path id="Path_135" class="st0" d="M24.8,35c-0.2,0.4-0.6,0.6-0.9,0.8l0,0l0.8-0.4l0.7-0.2c0.3-0.1,0.6-0.4,0.7-0.7
			c0-0.1,0-0.1,0.1-0.2c0.1-0.5,0.2-1.1,0.4-1.7v-0.2c-0.1-0.6-0.2-1.2-0.4-1.7c0-0.1,0-0.1-0.1-0.2c-0.1-0.3-0.4-0.6-0.7-0.7l0,0
			l-0.2-0.1l-1.4-0.5h0.1c0.6,0.2,0.9,0.6,0.9,0.8c0.1,0.2,0.1,0.5,0.2,0.7c0.1,0.5,0.2,1.1,0.4,1.7C25.3,33,25.1,33.6,25,34
			S24.8,34.7,24.8,35"/>
		<path id="Path_136" class="st0" d="M18,32.6L18,32.6L18,32.6c-0.2-1.4-0.5-2.6-0.7-3.7c-0.2-0.6-0.4-1.3-0.7-1.9
			c-0.2-0.3-0.5-0.6-0.8-0.7h-0.1c-0.1,0-0.2-0.1-0.4-0.1s-0.2-0.1-0.4-0.1l0,0c-0.2,0-0.5-0.1-0.8-0.1c0.5,0.1,0.9,0.4,1.1,0.8l0,0
			c0.3,0.7,0.5,1.4,0.7,2.1c0.4,1.2,0.6,2.4,0.7,3.7c-0.1,1.2-0.3,2.5-0.7,3.7c-0.2,0.7-0.4,1.4-0.7,2.1l0,0
			c-0.2,0.4-0.6,0.7-1.1,0.8c0.2-0.1,0.5-0.1,0.7-0.2l0,0c0.1,0,0.2-0.1,0.2-0.1c0.1,0,0.4-0.1,0.5-0.1h0.1c0.4-0.1,0.7-0.4,0.8-0.7
			c0.3-0.6,0.5-1.3,0.7-1.9C17.7,35,17.9,33.8,18,32.6"/>
		<path id="Path_137" class="st0" d="M51,26L51,26"/>
		<path id="Path_138" class="st0" d="M51.1,39.3L51.1,39.3"/>
		<path id="Path_139" class="st0" d="M37.3,31.3c0.2-0.3,0.5-0.6,0.8-0.7h0.1L37.1,31c-1.1,0.4-1.7,0.7-1.9,1.2l0,0v0.4l0,0v0.1l0,0
			c0.1,0.6,0.6,1.1,1.9,1.4h0.1l0.9,0.4l0,0c-0.3-0.2-0.6-0.4-0.8-0.7v-0.2c-0.1-0.3-0.1-0.6-0.1-0.9c0-0.4,0.1-0.7,0.1-1.1
			C37.3,31.6,37.3,31.4,37.3,31.3"/>
		<path id="Path_140" class="st0" d="M62.2,29.3c-0.4,0.4-0.7,1-0.8,1.5c-0.2,0.5-0.3,1.1-0.4,1.7l0,0c0.1,0.6,0.2,1.2,0.4,1.7
			c0.2,0.6,0.5,1.1,0.8,1.5c0.1,0.1,0.3,0.1,0.5,0.1c0.1-0.1,0.2-0.2,0.4-0.2l0,0c0.1,0,0.1,0,0.1-0.1l0,0l0,0
			c0.1-0.1,0.2-0.1,0.2-0.2c-0.1,0.1-0.3,0.1-0.5,0c-0.1-0.3-0.3-0.6-0.4-0.9c-0.1-0.5-0.2-1.1-0.4-1.8l0.4-1.8
			c0.1-0.3,0.2-0.6,0.4-0.9c0.1-0.1,0.2-0.2,0.5,0c-0.1-0.1-0.2-0.1-0.2-0.2l0,0c-0.1,0-0.1,0-0.1-0.1l0,0l0,0
			c-0.1-0.1-0.2-0.2-0.4-0.2C62.4,29.2,62.3,29.2,62.2,29.3"/>
		<path id="Path_141" class="st0" d="M50,26.8L50,26.8c0.2-0.4,0.6-0.7,1.1-0.8c-0.2,0.1-0.5,0.1-0.7,0.2l0,0
			c-0.1,0-0.2,0.1-0.4,0.1s-0.2,0.1-0.4,0.1h-0.1c-0.4,0.1-0.7,0.4-0.8,0.7c-0.3,0.6-0.5,1.3-0.7,1.9c-0.4,1.2-0.6,2.3-0.7,3.6v0.2
			c0.2,1.3,0.5,2.5,0.7,3.6c0.2,0.6,0.4,1.3,0.7,1.9c0.2,0.3,0.5,0.6,0.8,0.7h0.1c0.1,0,0.2,0.1,0.5,0.1c0.1,0,0.2,0.1,0.2,0.1l0,0
			c0.2,0.1,0.5,0.1,0.7,0.2c-0.5-0.1-0.9-0.4-1.1-0.8l0,0c-0.3-0.7-0.5-1.4-0.7-2.1c-0.4-1.2-0.6-2.4-0.7-3.7
			c0.1-1.2,0.3-2.5,0.7-3.7C49.4,28.4,49.6,27.6,50,26.8"/>
		<path id="Path_142" class="st0" d="M39.9,30l0.1-0.1l0,0L39.9,30z"/>
		<path id="Path_143" class="st0" d="M53,26.2c0.2-0.3,0.5-0.5,0.8-0.5h-1.3c-0.3,0-0.6,0.2-0.7,0.5c-0.5,0.8-0.8,1.7-1.1,2.6
			c-0.4,1.2-0.6,2.5-0.8,3.8v0.2c0.2,1.3,0.5,2.5,0.8,3.8c0.3,0.9,0.7,1.8,1.1,2.6c0.2,0.2,0.4,0.4,0.7,0.5h1.3
			c-0.3,0-0.7-0.2-0.8-0.5c-0.4-0.8-0.7-1.6-0.9-2.5c-0.4-1.3-0.6-2.7-0.8-4c0.2-1.4,0.5-2.7,0.8-4C52.3,27.8,52.6,27,53,26.2"/>
		<path id="Path_144" class="st0" d="M60.8,27.9c-0.1,0-0.1-0.1-0.2-0.1h-0.1c-0.2-0.1-0.4,0-0.6,0.1c-0.6,0.7-1,1.4-1.2,2.3
			c-0.3,0.9-0.5,1.7-0.6,2.6v0.1l0,0c0.1,0.9,0.3,1.8,0.6,2.6s0.7,1.6,1.2,2.3c0.1,0.2,0.4,0.2,0.6,0.1h0.1c0.1,0,0.1,0,0.1-0.1l0,0
			c0.1,0,0.1-0.1,0.2-0.1l0,0c0.2-0.1,0.3-0.2,0.5-0.4c-0.2,0.1-0.5,0.2-0.7,0c-0.3-0.5-0.5-1-0.6-1.5c-0.3-0.9-0.5-1.8-0.6-2.7
			c0.1-0.9,0.3-1.8,0.6-2.7l0,0c0.2-0.5,0.4-1,0.6-1.5c0.2-0.2,0.5-0.1,0.7,0c-0.1-0.1-0.4-0.2-0.5-0.4l0,0
			C60.9,27.9,60.8,27.9,60.8,27.9"/>
		<path id="Path_145" class="st0" d="M40.5,30.1c0.2-0.4,0.6-0.6,0.9-0.8h0.1l-1.4,0.5l-0.2,0.1l0,0c-0.3,0.1-0.6,0.4-0.7,0.7
			c0,0.1,0,0.1-0.1,0.2c-0.1,0.5-0.2,1.1-0.4,1.7v0.2c0.1,0.6,0.2,1.2,0.4,1.7c0,0.1,0,0.1,0.1,0.2c0.1,0.3,0.4,0.6,0.7,0.7l0.7,0.2
			l0.8,0.4l0,0c-0.6-0.2-0.9-0.6-0.9-0.8c-0.1-0.2-0.1-0.5-0.2-0.7c-0.1-0.5-0.2-1.1-0.4-1.7c0.1-0.6,0.2-1.2,0.4-1.7
			C40.3,30.8,40.4,30.4,40.5,30.1"/>
		<path id="Path_146" class="st0" d="M43.8,28.5l-0.7,0.2l0,0c-0.4,0.2-0.7,0.5-0.8,0.8c-0.1,0.2-0.1,0.4-0.1,0.6
			c-0.2,0.8-0.4,1.6-0.5,2.4v0.2c0.1,0.8,0.2,1.6,0.5,2.4c0,0.2,0.1,0.4,0.1,0.6c0.1,0.4,0.4,0.7,0.8,0.8l0,0l0.2,0.1l1.3,0.5h-0.1
			c-0.4-0.1-0.8-0.4-0.9-0.8c-0.1-0.4-0.2-0.7-0.4-1.2c-0.2-0.8-0.4-1.6-0.5-2.4c0.1-0.8,0.2-1.6,0.5-2.4c0.1-0.4,0.2-0.7,0.4-1.1
			s0.5-0.7,0.9-0.8L43.8,28.5L43.8,28.5z"/>
		<path id="Path_147" class="st0" d="M46.2,27.6c-0.4,0.1-0.7,0.3-0.7,0.7c-0.1,0.4-0.3,0.8-0.5,1.2c-0.3,1-0.5,2-0.6,3v0.2
			c0.1,1,0.3,2,0.6,3c0.1,0.4,0.2,0.8,0.5,1.2c0.2,0.3,0.4,0.5,0.7,0.7l0.6,0.2l0.8,0.4h0.2c-0.4-0.2-0.7-0.5-0.9-0.8
			c-0.2-0.5-0.4-1-0.5-1.5c-0.3-1-0.5-2-0.6-3.1c0.1-1,0.3-2.1,0.6-3.1c0.1-0.6,0.4-1.1,0.5-1.5c0.2-0.4,0.5-0.8,1-0.9h-0.2
			l-0.5,0.1L46.2,27.6z"/>
		<path id="Path_148" class="st0" d="M65.1,31.8L65.1,31.8c0-0.1,0-0.1-0.1-0.1l0,0c-0.4-0.5-0.8-1-1.3-1.4c0.1,0.2,0.1,0.4,0.2,0.6
			c0.4,1.2,0.4,2.6-0.1,3.8c0,0.1-0.1,0.2-0.1,0.4c0.5-0.5,1-1,1.4-1.5l0,0c0-0.1,0-0.1,0.1-0.1l0,0C65.4,32.8,65.3,32.3,65.1,31.8"
			/>
		<path id="Path_149" class="st0" d="M55.4,32.5L55.4,32.5L55.4,32.5c0.2,1.3,0.5,2.4,0.7,3.4c0.3,1,0.7,1.9,1.3,2.7
			c0.2,0.2,0.4,0.2,0.6,0.1h0.2c0.1,0,0.2-0.1,0.4-0.1l0,0c0.1,0,0.2-0.1,0.4-0.1c-0.2,0.1-0.4,0.1-0.6-0.1
			c-0.4-0.7-0.7-1.5-0.8-2.3c-0.4-1.1-0.6-2.3-0.7-3.4c0.1-1.2,0.3-2.3,0.7-3.4c0.2-0.8,0.5-1.5,0.8-2.3c0.1-0.2,0.4-0.2,0.6-0.1
			c-0.1-0.1-0.2-0.1-0.4-0.1l0,0c-0.1,0-0.2-0.1-0.4-0.1H58c-0.2-0.1-0.5-0.1-0.6,0.1c-0.6,0.8-1,1.7-1.3,2.7
			C55.8,30.5,55.5,31.5,55.4,32.5"/>
		<path id="Path_150" class="st0" d="M56,25.9h-0.6c-0.3,0-0.5,0.1-0.7,0.2c-0.6,0.9-1,1.8-1.3,2.8c-0.4,1.2-0.6,2.4-0.8,3.7v0.2
			c0.2,1.2,0.5,2.5,0.8,3.7c0.3,1,0.7,2,1.3,2.8c0.2,0.2,0.4,0.3,0.7,0.2H56c0.2,0,0.3,0,0.5-0.1c-0.3,0.1-0.5,0-0.7-0.2
			c-0.4-0.8-0.8-1.6-0.9-2.5c-0.4-1.3-0.6-2.6-0.8-3.9c0.2-1.3,0.5-2.6,0.8-3.9c0.2-0.9,0.5-1.7,0.9-2.5c0.1-0.2,0.2-0.4,0.7-0.2
			C56.4,26,56.2,25.9,56,25.9L56,25.9"/>
		<path id="Path_151" class="st0" d="M25.9,47.2L25.9,47.2l0.1-0.1l0.4-0.8l0.2-0.5c0.2-0.3,0.2-0.7,0-1.1c-0.2-0.4-0.4-0.8-0.6-1.2
			c-0.5-0.8-1.1-1.7-1.7-2.5l0,0c-0.8-0.6-1.7-1.2-2.5-1.7c-0.4-0.2-0.8-0.4-1.2-0.6c-0.3-0.1-0.7-0.1-1.1,0L18.6,39l-0.5,0.2l0,0
			c-0.1,0-0.1,0-0.1,0.1l0,0l0,0c0.4-0.2,0.9-0.2,1.3,0c0.5,0.2,1,0.4,1.4,0.7c0.9,0.5,1.8,1.1,2.6,1.8c0.6,0.8,1.2,1.7,1.8,2.6
			c0.3,0.5,0.6,1,0.7,1.5C26.1,46.4,26.1,46.8,25.9,47.2"/>
		<path id="Path_152" class="st0" d="M28.5,35c0.1,0,0.1,0.1,0.2,0.1c0.6,0.3,1.1,0.8,1.4,1.4c0,0.1,0.1,0.1,0.1,0.2
			c0.1,0.1,0.1,0.5,0,1.1l0,0l0.4-0.8v-0.1l0,0c0.6-1.2,0.7-2,0.4-2.4l0,0c-0.1-0.1-0.1-0.1-0.2-0.1l0,0c-0.7-0.1-1.5,0.1-2.1,0.5
			l-0.9,0.5h0.1C27.9,34.9,28.2,35,28.5,35"/>
		<path id="Path_153" class="st0" d="M25.4,36.4l0.7,0.4l0,0c0.5,0.3,1,0.6,1.4,0.9c0.4,0.4,0.7,0.9,0.9,1.4l0.4,0.7
			c0.1,0.4,0,0.9-0.1,1.3l0,0l0.4-0.8l0.4-0.7c0.1-0.3,0.1-0.6,0-0.9c0-0.1-0.1-0.1-0.1-0.2c-0.3-0.5-0.6-1-0.9-1.4l0,0
			c-0.4-0.4-0.9-0.7-1.4-0.9c-0.1,0-0.1-0.1-0.2-0.1c-0.3-0.1-0.6-0.1-0.9,0l0,0l-0.2,0.1l-1.3,0.6h0.1C24.6,36.4,25,36.3,25.4,36.4
			"/>
		<path id="Path_154" class="st0" d="M25.5,35.9L25.5,35.9l0.2-0.1L25.5,35.9z"/>
		<path id="Path_155" class="st0" d="M16.7,55.3c-0.1-0.8-0.3-1.6-0.7-2.4c-0.4-0.8-0.9-1.6-1.4-2.3l0,0c-0.7-0.6-1.5-1-2.3-1.4
			s-1.6-0.7-2.5-0.7c-0.2,0-0.4,0.1-0.5,0.4V49l0,0v0.4l0,0c0,0.2-0.1,0.4-0.1,0.6c0-0.2,0.1-0.6,0.5-0.6c0.5,0.2,1.1,0.4,1.5,0.7
			c0.8,0.4,1.6,0.9,2.3,1.5c0.6,0.8,1.1,1.5,1.5,2.3c0.3,0.5,0.6,1,0.7,1.5c0,0.2-0.2,0.5-0.4,0.5h-0.1c0.2,0,0.4-0.1,0.6-0.1l0,0
			c0.1,0,0.2,0,0.2-0.1h0.2C16.7,55.6,16.7,55.4,16.7,55.3"/>
		<path id="Path_156" class="st0" d="M9.2,53.5c-0.1-0.2-0.1-0.4-0.2-0.6c0,0.7,0,1.4,0.1,2v0.2c0.1,0.5,0.5,0.9,0.9,1.1h0.1
			c0.7,0.1,1.3,0.1,2,0.1c-0.1,0-0.2-0.1-0.4-0.1C10.8,55.5,9.9,54.6,9.2,53.5"/>
		<path id="Path_157" class="st0" d="M18,55.4c0.1,0,0.2-0.1,0.4-0.1l0,0c0.1,0,0.2-0.1,0.4-0.1H19c0.2-0.1,0.4-0.3,0.4-0.6
			c-0.1-1-0.5-2-0.9-2.8c-0.5-1-1.1-2-1.8-2.8l0,0c-0.9-0.7-1.8-1.3-2.8-1.8c-0.9-0.5-1.8-0.8-2.8-1c-0.2,0-0.5,0.1-0.6,0.4v0.2
			c0,0.1-0.1,0.2-0.1,0.4l0,0c0,0.1-0.1,0.2-0.1,0.4c0.1-0.2,0.2-0.4,0.5-0.4c0.8,0.2,1.5,0.5,2.1,0.9c1,0.6,2,1.2,3,1.9
			c0.7,1,1.3,1.9,1.9,3c0.4,0.7,0.7,1.4,0.9,2.1C18.4,55.2,18.2,55.3,18,55.4"/>
		<path id="Path_158" class="st0" d="M12.6,52.7L12.6,52.7c-0.5-0.4-1-0.7-1.5-0.9c-0.5-0.3-1.1-0.5-1.7-0.5c-0.2,0-0.4,0.1-0.4,0.2
			v0.6l0,0v0.4c0-0.2,0.1-0.3,0.3-0.4h0.1c0.3,0.1,0.6,0.3,0.9,0.4c0.5,0.2,0.9,0.6,1.5,0.9c0.4,0.5,0.7,1,0.9,1.5
			c0.2,0.3,0.3,0.6,0.4,0.9c0,0.2-0.1,0.4-0.2,0.4h0.9c0.1,0,0.2-0.1,0.2-0.4c-0.1-0.6-0.2-1.1-0.5-1.7
			C13.3,53.7,12.9,53.2,12.6,52.7"/>
		<path id="Path_159" class="st0" d="M9.8,47.2L9.8,47.2"/>
		<path id="Path_160" class="st0" d="M21.6,52.9c-0.2-1-0.6-2-1.1-3c-0.6-1.1-1.3-2.2-2-3.2l0,0c-1-0.8-2.1-1.5-3.2-2
			c-0.9-0.5-1.8-0.9-2.9-1.1c-0.3,0-0.5,0.1-0.7,0.2c-0.1,0.1-0.1,0.2-0.2,0.4l0,0c0,0.1,0,0.1-0.1,0.1l0,0c0,0.1,0,0.1-0.1,0.1l0,0
			l0,0c-0.1,0.1-0.3,0.3-0.4,0.5c0.1-0.3,0.4-0.4,0.7-0.4c0.8,0.3,1.6,0.6,2.4,1.1c1.2,0.7,2.3,1.4,3.3,2.3c0.8,1.2,1.7,2.3,2.3,3.3
			c0.5,0.9,0.8,1.8,1.1,2.4c0,0.3-0.1,0.6-0.4,0.7c0.1-0.1,0.3-0.2,0.5-0.2l0,0c0.1-0.1,0.2-0.2,0.2-0.2l0,0
			c0.1-0.1,0.2-0.1,0.4-0.2C21.5,53.4,21.6,53.2,21.6,52.9"/>
		<path id="Path_161" class="st0" d="M23.6,50.8c-0.3-0.9-0.7-1.8-1.1-2.6c-0.6-1.1-1.3-2.2-2.1-3.2l0,0c-1-0.8-2.1-1.5-3.2-2.1
			c-0.8-0.4-1.7-0.8-2.6-1.1c-0.3,0-0.6,0.1-0.8,0.2l-0.2,0.2l0,0l-0.4,0.4l0,0l-0.5,0.5l0.1-0.1c0.2-0.3,0.6-0.4,0.9-0.2
			c0.8,0.3,1.6,0.7,2.4,1.1c1.1,0.6,2.3,1.4,3.4,2.3c0.9,1.1,1.6,2.2,2.3,3.4c0.5,0.9,0.8,1.8,1.1,2.4c0.1,0.3,0,0.7-0.2,0.9
			L22.6,53l0.5-0.5l0,0l0.4-0.4l0,0l0.2-0.2L23.6,50.8"/>
		<path id="Path_162" class="st0" d="M25.1,47.8c-0.2-0.6-0.5-1.2-0.8-1.9c-0.5-1.1-1.2-2.1-2-3l0,0c-1.1-0.7-2-1.4-3-2
			c-0.7-0.4-1.3-0.6-1.9-0.8C17,40,16.6,40,16.3,40.2c-0.1,0-0.1,0-0.1,0.1l0,0l0,0c-0.1,0.1-0.2,0.1-0.4,0.2
			c-0.1,0-0.2,0.1-0.4,0.1l0,0L14.8,41c0.4-0.3,0.9-0.4,1.3-0.2l0,0c0.7,0.3,1.4,0.6,2,0.9c1.1,0.7,2.1,1.4,3.1,2.1
			c0.8,1,1.5,2,2.1,3.1c0.4,0.6,0.7,1.3,0.9,2l0,0c0.1,0.4,0.1,0.9-0.1,1.3l0.4-0.7l0,0c0-0.1,0.1-0.2,0.1-0.2
			c0.1-0.1,0.1-0.2,0.2-0.4l0,0c0-0.1,0-0.1,0.1-0.1l0,0C25.2,48.6,25.3,48.2,25.1,47.8"/>
		<path id="Path_163" class="st0" d="M24.2,50.3L24.2,50.3"/>
		<path id="Path_164" class="st0" d="M14.8,40.9L14.8,40.9"/>
		<path id="Path_165" class="st0" d="M22.3,37.8c0.4,0.2,0.7,0.4,1.1,0.6c0.7,0.4,1.4,0.9,2,1.4c0.5,0.6,1,1.3,1.4,2
			c0.2,0.4,0.4,0.7,0.6,1.1c0.2,0.4,0.1,0.9-0.1,1.3v0.1l0.6-1.3l0.1-0.2l0,0c0.2-0.4,0.2-0.8,0-1.2c-0.1-0.1-0.1-0.4-0.2-0.5
			c-0.4-0.6-0.8-1.3-1.3-2l0,0c-0.6-0.5-1.3-0.9-2-1.3c-0.1-0.1-0.3-0.2-0.5-0.2c-0.4-0.2-0.8-0.2-1.2,0l0,0L22.1,38l-0.8,0.4h0.1
			C21.5,37.9,21.8,37.7,22.3,37.8L22.3,37.8"/>
		<path id="Path_166" class="st0" d="M40,17.4c0.2,0.6,0.5,1.2,0.8,1.9c0.5,1.1,1.2,2.1,2,3l0,0c1.1,0.7,2,1.4,3,2
			c0.7,0.4,1.3,0.6,1.9,0.8c0.4,0.1,0.8,0.1,1.1-0.1c0.1,0,0.1,0,0.1-0.1l0,0l0,0c0.1-0.1,0.2-0.1,0.4-0.2c0.1,0,0.2-0.1,0.2-0.1
			l0,0l0.7-0.4c-0.4,0.3-0.9,0.4-1.3,0.2c-0.7-0.3-1.4-0.6-2-0.9c-1.1-0.7-2.1-1.4-3.1-2.1c-0.8-1-1.5-2-2.1-3.1
			c-0.4-0.6-0.7-1.3-0.9-2c-0.1-0.4,0-0.9,0.2-1.3l-0.4,0.7l0,0c0,0.1-0.1,0.2-0.1,0.4c-0.1,0.1-0.1,0.2-0.2,0.4
			c0,0.1,0,0.1-0.1,0.1l0,0C39.9,16.7,40,17.2,40,17.4"/>
		<path id="Path_167" class="st0" d="M53.5,20.6c-0.8-0.3-1.6-0.6-2.4-1.1c-1.2-0.7-2.3-1.4-3.3-2.3c-0.8-1.2-1.7-2.3-2.3-3.3
			c-0.5-0.9-0.8-1.8-1.1-2.4c0-0.3,0.1-0.6,0.4-0.7c-0.1,0.1-0.3,0.2-0.5,0.2l0,0c-0.1,0-0.1,0-0.1,0.1l0,0c-0.1,0-0.1,0-0.1,0.1
			l0,0l0,0c-0.1,0.1-0.2,0.1-0.4,0.2c-0.2,0.2-0.3,0.5-0.2,0.7c0.2,1,0.5,2,1.1,2.8c0.6,1.1,1.3,2.2,2,3.2l0,0c1,0.8,2.1,1.5,3.2,2
			c0.9,0.5,1.9,0.9,3,1.1c0.3,0,0.5-0.1,0.7-0.2c0.1-0.1,0.1-0.2,0.2-0.4l0,0c0.1-0.1,0.2-0.2,0.2-0.2l0,0c0.1-0.1,0.2-0.3,0.2-0.5
			C54,20.8,53.7,20.8,53.5,20.6"/>
		<path id="Path_168" class="st0" d="M48.5,9.8c0.1,0.8,0.3,1.6,0.7,2.4s0.9,1.6,1.4,2.3l0,0c0.7,0.6,1.5,1,2.3,1.4
			c0.7,0.4,1.5,0.7,2.4,0.7c0.2,0,0.4-0.1,0.5-0.4v-0.1l0,0V16c0-0.1,0-0.2,0.1-0.2l0,0c0-0.2,0.1-0.4,0.1-0.6
			c-0.1,0.2-0.2,0.6-0.5,0.5C55,15.5,54.4,15.3,54,15c-0.8-0.4-1.6-0.9-2.3-1.5c-0.6-0.8-1.1-1.5-1.5-2.3l0,0
			c-0.3-0.5-0.6-1-0.7-1.5c0-0.4,0.2-0.5,0.6-0.5c-0.2,0-0.4,0.1-0.6,0.1h-0.6C48.7,9.4,48.5,9.6,48.5,9.8"/>
		<path id="Path_169" class="st0" d="M39.9,28.7l-0.7-0.4c-0.5-0.3-1-0.6-1.4-0.9c-0.4-0.4-0.7-0.9-0.9-1.4l0,0l-0.4-0.7
			c-0.1-0.1-0.1-0.6,0.1-1.3v-0.1L36,25.2l-0.1,0.1l0,0c-0.1,0.3-0.1,0.6,0,0.9c0,0.1,0.1,0.1,0.1,0.2c0.3,0.5,0.6,1,0.9,1.4l0,0
			c0.4,0.4,0.9,0.7,1.4,0.9c0.1,0,0.1,0.1,0.2,0.1c0.3,0.1,0.6,0.1,0.9,0l0.7-0.4l0.8-0.4l0,0C40.5,28.9,40,28.8,39.9,28.7"/>
		<path id="Path_170" class="st0" d="M52.6,12.6L52.6,12.6c0.5,0.4,1,0.7,1.5,0.9c0.5,0.3,1.1,0.5,1.7,0.5c0.2,0,0.4-0.1,0.4-0.2
			v-0.5l0,0v-0.1l0,0v-0.4c0,0.2-0.1,0.4-0.4,0.2c-0.3-0.1-0.6-0.3-0.9-0.4c-0.5-0.2-0.9-0.6-1.5-0.9c-0.4-0.5-0.7-1-0.9-1.5
			c0-0.3-0.1-0.6-0.2-0.8c0-0.2,0.1-0.4,0.2-0.4h-0.9c-0.1,0-0.2,0.1-0.2,0.4c0.1,0.6,0.2,1.1,0.5,1.7C52,11.5,52.3,12,52.6,12.6"/>
		<path id="Path_171" class="st0" d="M36.8,30.1c-0.1,0-0.1-0.1-0.2-0.1c-0.6-0.3-1.1-0.8-1.4-1.4c0-0.1-0.1-0.1-0.1-0.2
			c-0.1-0.1-0.1-0.5,0-1.1v-0.1l-0.5,0.9l0,0c-0.4,0.6-0.6,1.4-0.5,2.1l0,0c0,0.1,0.1,0.1,0.1,0.2l0,0c0.5,0.4,1.2,0.2,2.4-0.4h0.1
			l0.8-0.4l0,0C37.3,30.4,36.9,30.2,36.8,30.1"/>
		<path id="Path_172" class="st0" d="M35.8,25.7l0.1-0.2l0,0L35.8,25.7z"/>
		<path id="Path_173" class="st0" d="M56.1,12c0,0.1,0.1,0.2,0.1,0.4c0-0.7,0-1.4-0.1-2l0,0v-0.1C56,9.8,55.5,9.4,55,9.4h-0.2
			c-0.7-0.1-1.3-0.1-2-0.1c0.2,0.1,0.4,0.1,0.6,0.2C54.6,9.9,55.6,10.8,56.1,12"/>
		<path id="Path_174" class="st0" d="M50.4,24.2L50.4,24.2"/>
		<path id="Path_175" class="st0" d="M40.9,14.8L40.9,14.8"/>
		<path id="Path_176" class="st0" d="M41.6,14.5c0.3,0.9,0.7,1.8,1.1,2.6c0.6,1.1,1.3,2.2,2.1,3.2l0,0c1,0.8,2.1,1.5,3.2,2.1
			c0.8,0.4,1.7,0.8,2.6,1.1c0.3,0,0.6-0.1,0.8-0.2c0.1,0,0.1-0.1,0.2-0.2l0,0l0.4-0.4l0,0l0.5-0.5l-0.1,0.1
			c-0.2,0.3-0.6,0.4-0.9,0.2c-0.8-0.3-1.6-0.7-2.4-1.1c-1.1-0.6-2.3-1.4-3.4-2.3c-0.8-1.1-1.6-2.2-2.3-3.4c-0.4-0.8-0.8-1.6-1.1-2.4
			c-0.1-0.3,0-0.7,0.2-0.9l0.1-0.1l-0.5,0.5l0,0l-0.4,0.4l0,0l-0.2,0.2C41.5,14,41.5,14.2,41.6,14.5"/>
		<path id="Path_177" class="st0" d="M47.1,9.8c-0.1,0-0.2,0.1-0.4,0.1l0,0c-0.1,0-0.2,0.1-0.4,0.1h-0.2c-0.4,0.1-0.4,0.4-0.4,0.6
			c0.1,1,0.5,2,0.9,2.8c0.5,1,1.1,2,1.8,2.8l0,0c0.9,0.7,1.8,1.3,2.8,1.8c0.9,0.5,1.8,0.8,2.8,0.9c0.2,0,0.5-0.1,0.6-0.4v-0.1l0,0
			v-0.1c0-0.1,0.1-0.2,0.1-0.4l0,0c0-0.1,0.1-0.2,0.1-0.4c-0.1,0.2-0.2,0.4-0.5,0.4c-0.8-0.2-1.5-0.5-2.1-0.9c-1-0.6-2-1.2-3-1.9
			c-0.7-1-1.3-1.9-1.9-3c-0.3-0.7-0.5-1.3-0.7-2C46.7,10.1,47,10,47.1,9.8"/>
		<path id="Path_178" class="st0" d="M39.4,18L39.4,18l-0.1,0.1L39,18.6l-0.4,0.8c-0.2,0.3-0.2,0.7,0,1.1s0.4,0.8,0.6,1.2
			c0.5,0.8,1.1,1.7,1.7,2.5l0,0c0.8,0.6,1.7,1.2,2.5,1.7c0.4,0.2,0.8,0.4,1.2,0.6c0.3,0.1,0.7,0.1,1.1,0l0.5-0.2l0.8-0.4h0.2
			c-0.4,0.2-0.9,0.2-1.3,0c-0.5-0.2-1-0.4-1.5-0.7c-0.9-0.5-1.8-1.1-2.6-1.8c-0.6-0.8-1.2-1.7-1.8-2.6c-0.3-0.4-0.5-0.9-0.7-1.4
			C39.1,18.9,39.2,18.4,39.4,18"/>
		<path id="Path_179" class="st0" d="M42.8,27.3c-0.4-0.2-0.7-0.4-1.1-0.6c-0.7-0.4-1.4-0.9-2-1.4c-0.5-0.6-1-1.3-1.4-2
			c-0.2-0.4-0.4-0.7-0.6-1.1c-0.2-0.4-0.1-0.9,0.1-1.3v-0.1l-0.4,0.8l-0.2,0.8l0,0c-0.2,0.4-0.2,0.8,0,1.2c0.1,0.1,0.1,0.4,0.2,0.5
			c0.4,0.6,0.8,1.3,1.3,2l0,0c0.6,0.5,1.3,0.9,2,1.3c0.1,0.1,0.3,0.2,0.5,0.2c0.4,0.2,0.8,0.2,1.2,0l0,0l0.2-0.1l1.3-0.6h-0.1
			C43.7,27.3,43.3,27.5,42.8,27.3C42.9,27.3,42.9,27.3,42.8,27.3"/>
		<path id="Path_180" class="st0" d="M40.2,2.7c1.5,0,3,0.2,4.5,0.6C46,4.1,47.2,5,48.3,6.1C49.2,7,50,8,50.7,9.1
			c-0.3-1.6-1.1-3.1-2.3-4.3c-0.9-1.1-2-2-3.2-2.7c-1.4-0.2-2.8-0.3-4.2-0.4C39.4,1.6,37.8,2,36.5,3C37.7,2.7,39,2.6,40.2,2.7"/>
		<path id="Path_181" class="st0" d="M45.9,6.4c-0.5-0.5-1.2-0.8-1.8-1.3H44c-0.7-0.3-1.4-0.4-2.1-0.5h-0.7
			c-0.7,0.1-1.5,0.5-1.5,1.1h0.7c0.4,0,0.7,0,1.1,0.1l0,0c0.8,0.1,1.5,0.3,2.3,0.5c0.7,0.3,1.3,0.7,1.8,1.2c0.5,0.4,0.9,0.8,1.2,1.3
			c0.5-0.5,0.2-1.3-0.2-1.9C46.3,6.8,46.2,6.5,45.9,6.4"/>
		<path id="Path_182" class="st0" d="M24.9,62.4c-1.5,0-3-0.2-4.5-0.6c-1.3-0.8-2.5-1.7-3.6-2.8c-0.9-0.9-1.7-1.9-2.4-3
			c0.3,1.6,1.1,3.1,2.3,4.3c0.9,1.1,2,2,3.2,2.7c1.4,0.2,2.8,0.4,4.2,0.4c1.6,0,3.2-0.4,4.6-1.3C27.5,62.3,26.2,62.4,24.9,62.4"/>
		<path id="Path_183" class="st0" d="M19.2,58.7c0.6,0.5,1.1,0.9,1.8,1.3h0.1c0.7,0.2,1.4,0.3,2.1,0.4H24c0.7-0.1,1.5-0.5,1.5-1.1
			h-0.7c-0.4,0-0.7,0-1.1-0.1l0,0c-0.8-0.1-1.5-0.3-2.3-0.5c-0.7-0.5-1.3-0.8-1.9-1.3c-0.5-0.4-0.9-0.8-1.2-1.3
			c-0.5,0.5-0.2,1.3,0.2,1.9C18.9,58.4,19.1,58.5,19.2,58.7"/>
		<path id="Path_184" class="st0" d="M17,6c1.1-1,2.4-1.9,3.7-2.7c1.5-0.4,3-0.6,4.5-0.6c1.3,0,2.6,0.1,3.8,0.5
			c-1.3-1-3-1.5-4.6-1.4c-1.4-0.1-2.8,0.1-4.2,0.4C19,2.9,17.9,3.9,17,4.9c-1.2,1.2-2,2.6-2.4,4.3C15.1,7.9,15.9,6.9,17,6"/>
		<path id="Path_185" class="st0" d="M24.3,4.5h-0.7c-0.7,0-1.4,0.1-2.1,0.4h-0.1c-0.7,0.3-1.3,0.8-1.8,1.3
			c-0.2,0.1-0.4,0.4-0.6,0.5c-0.5,0.6-0.8,1.4-0.2,1.9l0,0C18.9,8.4,19,8.2,19.2,8c0.3-0.3,0.5-0.5,0.8-0.7c0.6-0.5,1.2-0.9,1.9-1.2
			c0.7-0.2,1.5-0.3,2.3-0.4c0.6-0.1,1.2-0.1,1.8,0C25.7,5,25,4.5,24.3,4.5"/>
		<path id="Path_186" class="st0" d="M48.3,59.1c-1.1,1-2.4,1.9-3.7,2.7c-1.5,0.4-3,0.6-4.5,0.6c-1.3,0-2.6-0.1-3.8-0.5
			c1.3,1,3,1.5,4.6,1.4c1.4,0.1,2.8,0,4.2-0.4c1.1-0.8,2.2-1.7,3.2-2.7c1.2-1.2,2-2.6,2.4-4.3C50.1,57.2,49.3,58.2,48.3,59.1"/>
		<path id="Path_187" class="st0" d="M40.9,60.5h0.7c0.7,0,1.4-0.1,2.1-0.4h0.1c0.7-0.3,1.3-0.8,1.8-1.3c0.2-0.1,0.4-0.4,0.6-0.5
			c0.5-0.6,0.8-1.4,0.2-1.9l0,0c-0.1,0.1-0.2,0.4-0.5,0.6c-0.3,0.3-0.5,0.5-0.8,0.7l0,0c-0.6,0.5-1.2,0.8-1.9,1.3
			c-0.7,0.2-1.5,0.3-2.3,0.4c-0.6,0.1-1.2,0.1-1.8,0C39.4,60,40.2,60.4,40.9,60.5"/>
		<path id="Path_188" class="st0" d="M3.1,28.6c-0.4-1.2-0.5-2.5-0.4-3.8c0-1.5,0.2-3,0.6-4.5C4.1,19,5,17.8,6.1,16.7
			C7,15.8,8,15,9.1,14.3c-1.6,0.3-3.1,1.1-4.3,2.3c-1.1,0.9-2,2-2.7,3.2c-0.2,1.4-0.4,2.8-0.4,4.2C1.8,25.6,2.2,27.2,3.1,28.6"/>
		<path id="Path_189" class="st0" d="M8.8,18.4c-0.5-0.5-1.3-0.2-1.9,0.2l-0.5,0.5c-0.5,0.5-0.8,1.2-1.3,1.8l0,0V21
			c-0.2,0.7-0.3,1.4-0.4,2.1v0.7c0.1,0.7,0.5,1.5,1.1,1.5l0,0v-0.7c0-0.4,0-0.7,0.1-1.1l0,0C6,22.7,6.2,22,6.4,21.2
			c0.5-0.7,0.8-1.3,1.3-1.9C8,19,8.4,18.7,8.8,18.4"/>
		<path id="Path_190" class="st0" d="M62.1,36.4c0.4,1.2,0.5,2.5,0.4,3.8c0,1.5-0.2,3-0.6,4.5C61,46,60.1,47.2,59,48.3
			c-0.9,0.9-1.9,1.7-3,2.4c1.6-0.3,3.1-1.1,4.3-2.3c1.1-0.9,2-2,2.7-3.2c0.2-1.4,0.4-2.8,0.4-4.2C63.5,39.4,63,37.8,62.1,36.4"/>
		<path id="Path_191" class="st0" d="M56.5,46.6c0.5,0.6,1.3,0.2,1.9-0.2c0.2-0.2,0.3-0.4,0.5-0.6c0.5-0.5,0.8-1.2,1.3-1.8l0,0v-0.1
			c0.2-0.7,0.3-1.4,0.4-2.1v-0.7c-0.1-0.7-0.5-1.5-1.1-1.5l0,0c0,0.2,0.1,0.5,0.1,0.7c0,0.4,0,0.7-0.1,1.1c-0.1,0.8-0.3,1.5-0.5,2.3
			c-0.5,0.7-0.8,1.3-1.3,1.9C57.3,45.9,56.9,46.3,56.5,46.6"/>
		<path id="Path_192" class="st0" d="M6,48.3c-1-1.1-1.9-2.4-2.7-3.7c-0.4-1.5-0.6-3-0.6-4.5c0-1.3,0.1-2.6,0.5-3.8
			c-1,1.3-1.5,3-1.4,4.6c0,1.4,0,2.8,0.2,4.2c0.8,1.1,1.7,2.2,2.7,3.2c1.2,1.2,2.6,2,4.3,2.4C7.9,50,6.9,49.2,6,48.3"/>
		<path id="Path_193" class="st0" d="M5,43.8L5,43.8c0.3,0.7,0.8,1.3,1.3,1.9c0.1,0.2,0.4,0.4,0.5,0.6c0.6,0.5,1.4,0.8,1.9,0.2l0,0
			c-0.1-0.1-0.4-0.2-0.6-0.5c-0.3-0.3-0.5-0.5-0.7-0.8C6.9,44.6,6.5,44,6,43.3l-0.4-2.1c-0.1-0.6-0.1-1.2,0-1.8
			c-0.7-0.1-1.1,0.7-1.2,1.4v0.7C4.7,42.3,4.9,43,5,43.8"/>
		<path id="Path_194" class="st0" d="M60.4,16.8c-1.2-1.2-2.7-2-4.3-2.4c1.1,0.6,2.1,1.4,3,2.4c1,1.1,1.9,2.4,2.7,3.7
			c0.4,1.5,0.6,3,0.6,4.5c0,1.3-0.1,2.6-0.5,3.8c1-1.3,1.5-3,1.4-4.6c0.1-1.4-0.1-2.8-0.4-4.2C62.4,18.8,61.5,17.7,60.4,16.8"/>
		<path id="Path_195" class="st0" d="M60.2,21.2L60.2,21.2c-0.3-0.7-0.8-1.3-1.3-1.9c-0.1-0.2-0.4-0.4-0.5-0.6
			c-0.6-0.5-1.4-0.8-1.9-0.2l0,0c0.1,0.1,0.4,0.2,0.6,0.5c0.3,0.3,0.5,0.5,0.7,0.8l0,0c0.5,0.6,0.8,1.2,1.3,1.9
			c0.2,0.7,0.3,1.5,0.4,2.3c0.1,0.6,0.1,1.2,0,1.8c0.7,0.1,1.1-0.7,1.2-1.4v-0.7C60.5,22.8,60.4,22,60.2,21.2"/>
	</g>
</g>
</svg>
